G04 EAGLE Gerber RS-274X export*
G75*
%MOMM*%
%FSLAX34Y34*%
%LPD*%
%INBottom Copper*%
%IPPOS*%
%AMOC8*
5,1,8,0,0,1.08239X$1,22.5*%
G01*
%ADD10C,1.785000*%
%ADD11C,1.100000*%
%ADD12C,1.560000*%
%ADD13P,1.649562X8X292.500000*%
%ADD14C,0.550000*%
%ADD15C,0.500000*%
%ADD16C,0.152400*%
%ADD17C,0.254000*%

G36*
X382125Y3774D02*
X382125Y3774D01*
X382197Y3776D01*
X382245Y3794D01*
X382297Y3802D01*
X382360Y3836D01*
X382428Y3861D01*
X382468Y3893D01*
X382514Y3918D01*
X382564Y3970D01*
X382620Y4014D01*
X382648Y4058D01*
X382684Y4096D01*
X382714Y4161D01*
X382753Y4221D01*
X382765Y4272D01*
X382787Y4319D01*
X382795Y4390D01*
X382813Y4460D01*
X382809Y4512D01*
X382814Y4563D01*
X382799Y4634D01*
X382793Y4705D01*
X382773Y4753D01*
X382762Y4804D01*
X382725Y4865D01*
X382697Y4931D01*
X382652Y4987D01*
X382636Y5015D01*
X382618Y5030D01*
X382592Y5062D01*
X381625Y6029D01*
X381625Y9571D01*
X384129Y12075D01*
X387671Y12075D01*
X389436Y10310D01*
X389510Y10257D01*
X389579Y10197D01*
X389609Y10185D01*
X389635Y10166D01*
X389722Y10139D01*
X389807Y10105D01*
X389848Y10101D01*
X389871Y10094D01*
X389903Y10095D01*
X389974Y10087D01*
X416837Y10087D01*
X416928Y10101D01*
X417018Y10109D01*
X417048Y10121D01*
X417080Y10126D01*
X417161Y10169D01*
X417245Y10205D01*
X417277Y10231D01*
X417298Y10242D01*
X417320Y10265D01*
X417376Y10310D01*
X436286Y29220D01*
X436339Y29294D01*
X436399Y29364D01*
X436411Y29394D01*
X436430Y29420D01*
X436457Y29507D01*
X436491Y29592D01*
X436495Y29633D01*
X436502Y29655D01*
X436501Y29687D01*
X436509Y29759D01*
X436509Y105927D01*
X436498Y105998D01*
X436496Y106069D01*
X436478Y106118D01*
X436470Y106170D01*
X436436Y106233D01*
X436411Y106300D01*
X436379Y106341D01*
X436354Y106387D01*
X436302Y106436D01*
X436258Y106492D01*
X436214Y106521D01*
X436176Y106556D01*
X436111Y106587D01*
X436051Y106625D01*
X436000Y106638D01*
X435953Y106660D01*
X435882Y106668D01*
X435812Y106686D01*
X435760Y106681D01*
X435709Y106687D01*
X435638Y106672D01*
X435567Y106666D01*
X435519Y106646D01*
X435468Y106635D01*
X435407Y106598D01*
X435341Y106570D01*
X435285Y106525D01*
X435257Y106509D01*
X435242Y106491D01*
X435210Y106465D01*
X415910Y87165D01*
X406515Y87165D01*
X406424Y87151D01*
X406334Y87143D01*
X406304Y87131D01*
X406272Y87126D01*
X406191Y87083D01*
X406107Y87047D01*
X406075Y87021D01*
X406054Y87010D01*
X406032Y86987D01*
X405976Y86942D01*
X403247Y84213D01*
X399574Y84213D01*
X399484Y84199D01*
X399393Y84191D01*
X399363Y84179D01*
X399331Y84174D01*
X399251Y84131D01*
X399167Y84095D01*
X399135Y84069D01*
X399114Y84058D01*
X399092Y84035D01*
X399036Y83990D01*
X397271Y82225D01*
X396378Y82225D01*
X396307Y82214D01*
X396236Y82212D01*
X396187Y82194D01*
X396135Y82186D01*
X396072Y82152D01*
X396005Y82127D01*
X395964Y82095D01*
X395918Y82070D01*
X395869Y82018D01*
X395813Y81974D01*
X395784Y81930D01*
X395749Y81892D01*
X395718Y81827D01*
X395680Y81767D01*
X395667Y81716D01*
X395645Y81669D01*
X395637Y81598D01*
X395620Y81528D01*
X395624Y81476D01*
X395618Y81425D01*
X395633Y81354D01*
X395639Y81283D01*
X395659Y81235D01*
X395670Y81184D01*
X395707Y81123D01*
X395735Y81057D01*
X395780Y81001D01*
X395796Y80973D01*
X395814Y80958D01*
X395840Y80926D01*
X407456Y69310D01*
X407530Y69257D01*
X407599Y69197D01*
X407629Y69185D01*
X407656Y69166D01*
X407743Y69139D01*
X407827Y69105D01*
X407868Y69101D01*
X407891Y69094D01*
X407923Y69095D01*
X407994Y69087D01*
X415426Y69087D01*
X415516Y69101D01*
X415607Y69109D01*
X415637Y69121D01*
X415669Y69126D01*
X415749Y69169D01*
X415833Y69205D01*
X415865Y69231D01*
X415886Y69242D01*
X415908Y69265D01*
X415964Y69310D01*
X417729Y71075D01*
X421271Y71075D01*
X423775Y68571D01*
X423775Y65029D01*
X422084Y63338D01*
X422072Y63322D01*
X422056Y63310D01*
X422000Y63222D01*
X421940Y63139D01*
X421934Y63120D01*
X421923Y63103D01*
X421898Y63002D01*
X421868Y62903D01*
X421868Y62884D01*
X421863Y62864D01*
X421871Y62761D01*
X421874Y62658D01*
X421881Y62639D01*
X421883Y62619D01*
X421923Y62524D01*
X421959Y62427D01*
X421971Y62411D01*
X421979Y62393D01*
X422084Y62262D01*
X423775Y60571D01*
X423775Y57029D01*
X422034Y55288D01*
X422022Y55272D01*
X422006Y55260D01*
X421977Y55213D01*
X421959Y55195D01*
X421945Y55166D01*
X421890Y55089D01*
X421884Y55070D01*
X421873Y55053D01*
X421848Y54952D01*
X421818Y54853D01*
X421818Y54834D01*
X421813Y54814D01*
X421821Y54711D01*
X421824Y54608D01*
X421831Y54589D01*
X421833Y54569D01*
X421873Y54474D01*
X421909Y54377D01*
X421921Y54361D01*
X421929Y54343D01*
X422034Y54212D01*
X423775Y52471D01*
X423775Y48929D01*
X422134Y47288D01*
X422122Y47272D01*
X422106Y47260D01*
X422050Y47172D01*
X421990Y47089D01*
X421984Y47070D01*
X421973Y47053D01*
X421948Y46952D01*
X421918Y46853D01*
X421918Y46834D01*
X421913Y46814D01*
X421921Y46711D01*
X421924Y46608D01*
X421931Y46589D01*
X421933Y46569D01*
X421973Y46474D01*
X422009Y46377D01*
X422021Y46361D01*
X422029Y46343D01*
X422134Y46212D01*
X423775Y44571D01*
X423775Y41029D01*
X421271Y38525D01*
X417729Y38525D01*
X416988Y39266D01*
X416972Y39278D01*
X416960Y39294D01*
X416872Y39350D01*
X416789Y39410D01*
X416770Y39416D01*
X416753Y39427D01*
X416652Y39452D01*
X416553Y39482D01*
X416534Y39482D01*
X416514Y39487D01*
X416411Y39479D01*
X416308Y39476D01*
X416289Y39469D01*
X416269Y39467D01*
X416174Y39427D01*
X416077Y39391D01*
X416061Y39379D01*
X416043Y39371D01*
X415912Y39266D01*
X413771Y37125D01*
X410229Y37125D01*
X407725Y39629D01*
X407725Y42058D01*
X407714Y42128D01*
X407712Y42200D01*
X407694Y42249D01*
X407686Y42300D01*
X407652Y42364D01*
X407627Y42431D01*
X407595Y42472D01*
X407570Y42518D01*
X407518Y42567D01*
X407474Y42623D01*
X407430Y42651D01*
X407392Y42687D01*
X407327Y42717D01*
X407267Y42756D01*
X407216Y42769D01*
X407169Y42791D01*
X407098Y42799D01*
X407028Y42816D01*
X406976Y42812D01*
X406925Y42818D01*
X406854Y42802D01*
X406783Y42797D01*
X406735Y42777D01*
X406684Y42765D01*
X406623Y42729D01*
X406557Y42701D01*
X406501Y42656D01*
X406473Y42639D01*
X406458Y42622D01*
X406426Y42596D01*
X404947Y41117D01*
X401405Y41117D01*
X398901Y43621D01*
X398901Y46117D01*
X398887Y46207D01*
X398879Y46298D01*
X398867Y46328D01*
X398862Y46360D01*
X398819Y46440D01*
X398783Y46524D01*
X398757Y46556D01*
X398746Y46577D01*
X398723Y46599D01*
X398713Y46612D01*
X398713Y49716D01*
X398699Y49806D01*
X398691Y49897D01*
X398679Y49927D01*
X398674Y49959D01*
X398631Y50040D01*
X398595Y50124D01*
X398569Y50156D01*
X398558Y50176D01*
X398535Y50199D01*
X398490Y50255D01*
X361817Y86928D01*
X361817Y120712D01*
X361803Y120802D01*
X361795Y120893D01*
X361783Y120923D01*
X361778Y120955D01*
X361735Y121036D01*
X361699Y121120D01*
X361673Y121152D01*
X361662Y121172D01*
X361639Y121195D01*
X361594Y121251D01*
X359251Y123594D01*
X359177Y123647D01*
X359107Y123707D01*
X359077Y123719D01*
X359051Y123738D01*
X358964Y123765D01*
X358879Y123799D01*
X358838Y123803D01*
X358816Y123810D01*
X358784Y123809D01*
X358712Y123817D01*
X350266Y123817D01*
X350195Y123806D01*
X350123Y123804D01*
X350075Y123786D01*
X350023Y123778D01*
X349960Y123744D01*
X349892Y123719D01*
X349852Y123687D01*
X349806Y123662D01*
X349756Y123610D01*
X349700Y123566D01*
X349672Y123522D01*
X349636Y123484D01*
X349606Y123419D01*
X349567Y123359D01*
X349555Y123308D01*
X349533Y123261D01*
X349525Y123190D01*
X349507Y123120D01*
X349511Y123068D01*
X349506Y123017D01*
X349521Y122946D01*
X349527Y122875D01*
X349547Y122827D01*
X349558Y122776D01*
X349595Y122715D01*
X349623Y122649D01*
X349668Y122593D01*
X349684Y122565D01*
X349702Y122550D01*
X349728Y122518D01*
X352275Y119971D01*
X352275Y116429D01*
X350820Y114975D01*
X350793Y114937D01*
X350759Y114906D01*
X350722Y114838D01*
X350677Y114775D01*
X350663Y114731D01*
X350641Y114691D01*
X350627Y114614D01*
X350604Y114540D01*
X350605Y114494D01*
X350597Y114449D01*
X350609Y114372D01*
X350611Y114294D01*
X350626Y114251D01*
X350633Y114205D01*
X350668Y114136D01*
X350695Y114063D01*
X350724Y114027D01*
X350745Y113986D01*
X350800Y113932D01*
X350849Y113871D01*
X350887Y113846D01*
X350920Y113814D01*
X351040Y113748D01*
X351056Y113738D01*
X351060Y113737D01*
X351067Y113733D01*
X351979Y113355D01*
X353955Y111379D01*
X355025Y108797D01*
X355025Y106003D01*
X353955Y103421D01*
X351979Y101445D01*
X349397Y100375D01*
X346603Y100375D01*
X344021Y101445D01*
X342045Y103421D01*
X340975Y106003D01*
X340975Y108797D01*
X342045Y111379D01*
X344021Y113355D01*
X344933Y113733D01*
X344972Y113757D01*
X345015Y113773D01*
X345076Y113822D01*
X345142Y113863D01*
X345171Y113898D01*
X345207Y113927D01*
X345249Y113992D01*
X345299Y114052D01*
X345315Y114095D01*
X345340Y114134D01*
X345359Y114209D01*
X345387Y114282D01*
X345389Y114328D01*
X345400Y114372D01*
X345394Y114450D01*
X345397Y114528D01*
X345385Y114572D01*
X345381Y114617D01*
X345351Y114689D01*
X345329Y114764D01*
X345303Y114802D01*
X345285Y114844D01*
X345199Y114950D01*
X345189Y114966D01*
X345185Y114969D01*
X345180Y114975D01*
X343725Y116429D01*
X343725Y119971D01*
X346272Y122518D01*
X346314Y122576D01*
X346364Y122628D01*
X346386Y122675D01*
X346416Y122717D01*
X346437Y122786D01*
X346467Y122851D01*
X346473Y122903D01*
X346488Y122953D01*
X346486Y123024D01*
X346494Y123095D01*
X346483Y123146D01*
X346482Y123198D01*
X346457Y123266D01*
X346442Y123336D01*
X346415Y123381D01*
X346397Y123429D01*
X346353Y123485D01*
X346316Y123547D01*
X346276Y123581D01*
X346244Y123621D01*
X346183Y123660D01*
X346129Y123707D01*
X346081Y123726D01*
X346037Y123754D01*
X345967Y123772D01*
X345901Y123799D01*
X345829Y123807D01*
X345798Y123815D01*
X345775Y123813D01*
X345734Y123817D01*
X330428Y123817D01*
X320217Y134028D01*
X320217Y175775D01*
X320203Y175865D01*
X320195Y175956D01*
X320183Y175986D01*
X320178Y176018D01*
X320135Y176098D01*
X320099Y176182D01*
X320073Y176214D01*
X320062Y176235D01*
X320039Y176257D01*
X319994Y176313D01*
X314801Y181506D01*
X314727Y181559D01*
X314658Y181619D01*
X314628Y181631D01*
X314601Y181650D01*
X314515Y181677D01*
X314430Y181711D01*
X314389Y181715D01*
X314366Y181722D01*
X314334Y181721D01*
X314263Y181729D01*
X284526Y181729D01*
X242765Y223490D01*
X242765Y238637D01*
X242751Y238728D01*
X242743Y238818D01*
X242731Y238848D01*
X242726Y238880D01*
X242683Y238961D01*
X242647Y239045D01*
X242621Y239077D01*
X242610Y239098D01*
X242587Y239120D01*
X242542Y239176D01*
X235628Y246090D01*
X235554Y246143D01*
X235484Y246203D01*
X235454Y246215D01*
X235428Y246234D01*
X235341Y246261D01*
X235256Y246295D01*
X235215Y246299D01*
X235193Y246306D01*
X235161Y246305D01*
X235089Y246313D01*
X211174Y246313D01*
X211084Y246299D01*
X210993Y246291D01*
X210963Y246279D01*
X210931Y246274D01*
X210851Y246231D01*
X210767Y246195D01*
X210735Y246169D01*
X210714Y246158D01*
X210692Y246135D01*
X210636Y246090D01*
X208871Y244325D01*
X205329Y244325D01*
X202825Y246829D01*
X202825Y250371D01*
X205329Y252875D01*
X208871Y252875D01*
X210636Y251110D01*
X210710Y251057D01*
X210779Y250997D01*
X210809Y250985D01*
X210835Y250966D01*
X210922Y250939D01*
X211007Y250905D01*
X211048Y250901D01*
X211071Y250894D01*
X211103Y250895D01*
X211174Y250887D01*
X237299Y250887D01*
X243726Y244460D01*
X243784Y244418D01*
X243836Y244369D01*
X243883Y244347D01*
X243925Y244317D01*
X243994Y244296D01*
X244059Y244265D01*
X244111Y244260D01*
X244161Y244244D01*
X244232Y244246D01*
X244303Y244238D01*
X244354Y244249D01*
X244406Y244251D01*
X244474Y244275D01*
X244544Y244290D01*
X244589Y244317D01*
X244637Y244335D01*
X244693Y244380D01*
X244755Y244417D01*
X244789Y244456D01*
X244829Y244489D01*
X244868Y244549D01*
X244915Y244604D01*
X244934Y244652D01*
X244962Y244696D01*
X244980Y244765D01*
X245007Y244832D01*
X245015Y244903D01*
X245023Y244934D01*
X245021Y244958D01*
X245025Y244998D01*
X245025Y247471D01*
X247529Y249975D01*
X251071Y249975D01*
X253575Y247471D01*
X253575Y243929D01*
X251810Y242164D01*
X251757Y242090D01*
X251697Y242021D01*
X251685Y241991D01*
X251666Y241965D01*
X251639Y241878D01*
X251605Y241793D01*
X251601Y241752D01*
X251594Y241729D01*
X251595Y241697D01*
X251587Y241626D01*
X251587Y225763D01*
X251601Y225672D01*
X251609Y225582D01*
X251621Y225552D01*
X251626Y225520D01*
X251669Y225439D01*
X251705Y225355D01*
X251731Y225323D01*
X251742Y225302D01*
X251765Y225280D01*
X251810Y225224D01*
X287460Y189574D01*
X287534Y189521D01*
X287604Y189461D01*
X287634Y189449D01*
X287660Y189430D01*
X287747Y189403D01*
X287832Y189369D01*
X287873Y189365D01*
X287895Y189358D01*
X287927Y189359D01*
X287999Y189351D01*
X291078Y189351D01*
X291148Y189362D01*
X291220Y189364D01*
X291269Y189382D01*
X291320Y189390D01*
X291384Y189424D01*
X291451Y189449D01*
X291492Y189481D01*
X291538Y189506D01*
X291587Y189558D01*
X291643Y189602D01*
X291671Y189646D01*
X291707Y189684D01*
X291737Y189749D01*
X291776Y189809D01*
X291789Y189860D01*
X291811Y189907D01*
X291819Y189978D01*
X291836Y190048D01*
X291832Y190100D01*
X291838Y190151D01*
X291823Y190222D01*
X291817Y190293D01*
X291797Y190341D01*
X291786Y190392D01*
X291749Y190453D01*
X291721Y190519D01*
X291676Y190575D01*
X291659Y190603D01*
X291642Y190618D01*
X291616Y190650D01*
X280276Y201990D01*
X278713Y203553D01*
X278713Y203635D01*
X278695Y203749D01*
X278677Y203866D01*
X278675Y203872D01*
X278674Y203878D01*
X278619Y203980D01*
X278566Y204085D01*
X278561Y204090D01*
X278558Y204095D01*
X278474Y204175D01*
X278390Y204257D01*
X278384Y204261D01*
X278380Y204265D01*
X278363Y204272D01*
X278243Y204338D01*
X277021Y204845D01*
X275045Y206821D01*
X273975Y209403D01*
X273975Y212197D01*
X275045Y214779D01*
X277021Y216755D01*
X279603Y217825D01*
X282397Y217825D01*
X284979Y216755D01*
X286955Y214779D01*
X288025Y212197D01*
X288025Y209403D01*
X286955Y206821D01*
X284972Y204838D01*
X284961Y204822D01*
X284945Y204809D01*
X284889Y204722D01*
X284829Y204638D01*
X284823Y204619D01*
X284812Y204602D01*
X284787Y204502D01*
X284757Y204403D01*
X284757Y204383D01*
X284752Y204364D01*
X284760Y204261D01*
X284763Y204157D01*
X284770Y204139D01*
X284771Y204119D01*
X284812Y204024D01*
X284847Y203926D01*
X284860Y203911D01*
X284868Y203892D01*
X284972Y203761D01*
X292906Y195828D01*
X292922Y195816D01*
X292935Y195801D01*
X293022Y195745D01*
X293106Y195684D01*
X293125Y195679D01*
X293142Y195668D01*
X293242Y195642D01*
X293341Y195612D01*
X293361Y195613D01*
X293380Y195608D01*
X293483Y195616D01*
X293587Y195618D01*
X293605Y195625D01*
X293625Y195627D01*
X293720Y195667D01*
X293818Y195703D01*
X293833Y195715D01*
X293852Y195723D01*
X293983Y195828D01*
X294529Y196375D01*
X298071Y196375D01*
X299936Y194510D01*
X300010Y194457D01*
X300079Y194397D01*
X300109Y194385D01*
X300135Y194366D01*
X300222Y194339D01*
X300307Y194305D01*
X300348Y194301D01*
X300371Y194294D01*
X300403Y194295D01*
X300474Y194287D01*
X324526Y194287D01*
X324616Y194301D01*
X324707Y194309D01*
X324737Y194321D01*
X324769Y194326D01*
X324849Y194369D01*
X324933Y194405D01*
X324965Y194431D01*
X324986Y194442D01*
X325008Y194465D01*
X325064Y194510D01*
X326829Y196275D01*
X330371Y196275D01*
X331666Y194980D01*
X331724Y194938D01*
X331776Y194888D01*
X331823Y194866D01*
X331865Y194836D01*
X331934Y194815D01*
X331999Y194785D01*
X332051Y194779D01*
X332101Y194764D01*
X332172Y194766D01*
X332243Y194758D01*
X332294Y194769D01*
X332346Y194770D01*
X332414Y194795D01*
X332484Y194810D01*
X332529Y194837D01*
X332577Y194855D01*
X332633Y194899D01*
X332695Y194936D01*
X332729Y194976D01*
X332769Y195008D01*
X332808Y195069D01*
X332855Y195123D01*
X332874Y195171D01*
X332902Y195215D01*
X332920Y195285D01*
X332947Y195351D01*
X332955Y195423D01*
X332963Y195454D01*
X332961Y195477D01*
X332965Y195518D01*
X332965Y210775D01*
X332951Y210865D01*
X332943Y210956D01*
X332931Y210986D01*
X332926Y211018D01*
X332883Y211098D01*
X332847Y211182D01*
X332821Y211214D01*
X332810Y211235D01*
X332787Y211257D01*
X332742Y211313D01*
X321889Y222167D01*
X321873Y222178D01*
X321860Y222194D01*
X321773Y222250D01*
X321689Y222310D01*
X321670Y222316D01*
X321653Y222327D01*
X321553Y222352D01*
X321454Y222383D01*
X321434Y222382D01*
X321415Y222387D01*
X321312Y222379D01*
X321208Y222376D01*
X321189Y222369D01*
X321169Y222368D01*
X321075Y222328D01*
X320977Y222292D01*
X320961Y222279D01*
X320943Y222272D01*
X320812Y222167D01*
X319771Y221125D01*
X316229Y221125D01*
X314264Y223090D01*
X314190Y223143D01*
X314121Y223203D01*
X314091Y223215D01*
X314065Y223234D01*
X313978Y223261D01*
X313893Y223295D01*
X313852Y223299D01*
X313829Y223306D01*
X313797Y223305D01*
X313726Y223313D01*
X290974Y223313D01*
X290884Y223299D01*
X290793Y223291D01*
X290763Y223279D01*
X290731Y223274D01*
X290651Y223231D01*
X290567Y223195D01*
X290535Y223169D01*
X290514Y223158D01*
X290492Y223135D01*
X290436Y223090D01*
X288671Y221325D01*
X285129Y221325D01*
X282625Y223829D01*
X282625Y227371D01*
X284390Y229136D01*
X284443Y229210D01*
X284503Y229279D01*
X284515Y229309D01*
X284534Y229335D01*
X284561Y229422D01*
X284595Y229507D01*
X284599Y229548D01*
X284606Y229571D01*
X284605Y229603D01*
X284613Y229674D01*
X284613Y247937D01*
X284599Y248028D01*
X284591Y248118D01*
X284579Y248148D01*
X284574Y248180D01*
X284531Y248261D01*
X284495Y248345D01*
X284469Y248377D01*
X284458Y248398D01*
X284435Y248420D01*
X284390Y248476D01*
X246876Y285990D01*
X245313Y287553D01*
X245313Y349935D01*
X245295Y350049D01*
X245277Y350166D01*
X245275Y350172D01*
X245274Y350178D01*
X245219Y350280D01*
X245166Y350385D01*
X245161Y350390D01*
X245158Y350395D01*
X245074Y350475D01*
X244990Y350557D01*
X244984Y350561D01*
X244980Y350565D01*
X244963Y350572D01*
X244843Y350638D01*
X243621Y351145D01*
X241645Y353121D01*
X240575Y355703D01*
X240575Y358497D01*
X241645Y361079D01*
X243621Y363055D01*
X246203Y364125D01*
X248997Y364125D01*
X251579Y363055D01*
X253555Y361079D01*
X254625Y358497D01*
X254625Y355703D01*
X253555Y353121D01*
X251579Y351145D01*
X250357Y350638D01*
X250257Y350576D01*
X250157Y350517D01*
X250153Y350512D01*
X250148Y350509D01*
X250073Y350418D01*
X249997Y350330D01*
X249995Y350324D01*
X249991Y350319D01*
X249949Y350211D01*
X249905Y350102D01*
X249904Y350094D01*
X249903Y350090D01*
X249902Y350071D01*
X249887Y349935D01*
X249887Y289762D01*
X249901Y289672D01*
X249909Y289581D01*
X249921Y289552D01*
X249926Y289520D01*
X249969Y289439D01*
X250005Y289355D01*
X250031Y289323D01*
X250042Y289302D01*
X250065Y289280D01*
X250110Y289224D01*
X255414Y283920D01*
X255472Y283878D01*
X255524Y283829D01*
X255571Y283807D01*
X255613Y283777D01*
X255682Y283756D01*
X255747Y283725D01*
X255799Y283720D01*
X255849Y283704D01*
X255920Y283706D01*
X255991Y283698D01*
X256042Y283709D01*
X256094Y283711D01*
X256162Y283735D01*
X256232Y283750D01*
X256276Y283777D01*
X256325Y283795D01*
X256381Y283840D01*
X256443Y283877D01*
X256477Y283916D01*
X256517Y283949D01*
X256556Y284009D01*
X256603Y284064D01*
X256622Y284112D01*
X256650Y284156D01*
X256668Y284225D01*
X256695Y284292D01*
X256703Y284363D01*
X256711Y284394D01*
X256709Y284418D01*
X256713Y284458D01*
X256713Y333135D01*
X256695Y333249D01*
X256677Y333366D01*
X256675Y333372D01*
X256674Y333378D01*
X256619Y333480D01*
X256566Y333585D01*
X256561Y333590D01*
X256558Y333595D01*
X256474Y333675D01*
X256390Y333757D01*
X256384Y333761D01*
X256380Y333765D01*
X256363Y333772D01*
X256243Y333838D01*
X255021Y334345D01*
X253045Y336321D01*
X251975Y338903D01*
X251975Y341697D01*
X253045Y344279D01*
X255021Y346255D01*
X257603Y347325D01*
X260397Y347325D01*
X262979Y346255D01*
X264955Y344279D01*
X266025Y341697D01*
X266025Y338903D01*
X264955Y336321D01*
X262979Y334345D01*
X261757Y333838D01*
X261657Y333776D01*
X261557Y333717D01*
X261553Y333712D01*
X261548Y333709D01*
X261473Y333618D01*
X261397Y333530D01*
X261395Y333524D01*
X261391Y333519D01*
X261349Y333411D01*
X261305Y333302D01*
X261304Y333294D01*
X261303Y333290D01*
X261302Y333271D01*
X261287Y333135D01*
X261287Y324031D01*
X261302Y323935D01*
X261312Y323838D01*
X261322Y323814D01*
X261326Y323788D01*
X261372Y323702D01*
X261412Y323613D01*
X261429Y323594D01*
X261442Y323571D01*
X261512Y323503D01*
X261578Y323432D01*
X261601Y323419D01*
X261620Y323401D01*
X261708Y323360D01*
X261794Y323313D01*
X261819Y323309D01*
X261843Y323298D01*
X261940Y323287D01*
X262036Y323270D01*
X262062Y323273D01*
X262087Y323270D01*
X262183Y323291D01*
X262279Y323305D01*
X262302Y323317D01*
X262328Y323323D01*
X262411Y323373D01*
X262498Y323417D01*
X262517Y323436D01*
X262539Y323449D01*
X262602Y323523D01*
X262670Y323592D01*
X262686Y323621D01*
X262699Y323636D01*
X262711Y323666D01*
X262751Y323739D01*
X263845Y326379D01*
X265821Y328355D01*
X268403Y329425D01*
X271197Y329425D01*
X273779Y328355D01*
X275755Y326379D01*
X276825Y323797D01*
X276825Y321003D01*
X275755Y318421D01*
X273779Y316445D01*
X272557Y315938D01*
X272457Y315876D01*
X272357Y315817D01*
X272353Y315812D01*
X272348Y315809D01*
X272273Y315718D01*
X272197Y315630D01*
X272195Y315624D01*
X272191Y315619D01*
X272149Y315511D01*
X272105Y315402D01*
X272104Y315394D01*
X272103Y315390D01*
X272102Y315371D01*
X272087Y315235D01*
X272087Y276563D01*
X272101Y276472D01*
X272109Y276382D01*
X272121Y276352D01*
X272126Y276320D01*
X272169Y276239D01*
X272205Y276155D01*
X272231Y276123D01*
X272242Y276102D01*
X272265Y276080D01*
X272310Y276024D01*
X299424Y248910D01*
X299498Y248857D01*
X299568Y248797D01*
X299598Y248785D01*
X299624Y248766D01*
X299711Y248739D01*
X299796Y248705D01*
X299837Y248701D01*
X299859Y248694D01*
X299891Y248695D01*
X299963Y248687D01*
X303126Y248687D01*
X303216Y248701D01*
X303307Y248709D01*
X303337Y248721D01*
X303369Y248726D01*
X303449Y248769D01*
X303533Y248805D01*
X303566Y248831D01*
X303586Y248842D01*
X303608Y248865D01*
X303664Y248910D01*
X306129Y251375D01*
X309671Y251375D01*
X311436Y249610D01*
X311510Y249557D01*
X311579Y249497D01*
X311609Y249485D01*
X311635Y249466D01*
X311722Y249439D01*
X311807Y249405D01*
X311848Y249401D01*
X311871Y249394D01*
X311903Y249395D01*
X311974Y249387D01*
X331047Y249387D01*
X332610Y247824D01*
X333936Y246498D01*
X334010Y246445D01*
X334080Y246385D01*
X334110Y246373D01*
X334136Y246354D01*
X334223Y246327D01*
X334308Y246293D01*
X334349Y246289D01*
X334371Y246282D01*
X334403Y246283D01*
X334474Y246275D01*
X336971Y246275D01*
X338736Y244510D01*
X338810Y244457D01*
X338879Y244397D01*
X338909Y244385D01*
X338935Y244366D01*
X339022Y244339D01*
X339107Y244305D01*
X339148Y244301D01*
X339171Y244294D01*
X339203Y244295D01*
X339274Y244287D01*
X353747Y244287D01*
X355310Y242724D01*
X363814Y234220D01*
X363872Y234178D01*
X363924Y234129D01*
X363971Y234107D01*
X364013Y234077D01*
X364082Y234056D01*
X364147Y234025D01*
X364199Y234020D01*
X364249Y234004D01*
X364320Y234006D01*
X364391Y233998D01*
X364442Y234009D01*
X364494Y234011D01*
X364562Y234035D01*
X364632Y234050D01*
X364677Y234077D01*
X364725Y234095D01*
X364781Y234140D01*
X364843Y234177D01*
X364877Y234216D01*
X364917Y234249D01*
X364956Y234309D01*
X365003Y234364D01*
X365022Y234412D01*
X365050Y234456D01*
X365068Y234525D01*
X365095Y234592D01*
X365103Y234663D01*
X365111Y234694D01*
X365109Y234718D01*
X365113Y234758D01*
X365113Y242237D01*
X365099Y242328D01*
X365091Y242418D01*
X365079Y242448D01*
X365074Y242480D01*
X365031Y242561D01*
X364995Y242645D01*
X364969Y242677D01*
X364958Y242698D01*
X364935Y242720D01*
X364890Y242776D01*
X351344Y256322D01*
X351328Y256334D01*
X351315Y256349D01*
X351228Y256405D01*
X351144Y256466D01*
X351125Y256471D01*
X351108Y256482D01*
X351008Y256508D01*
X350909Y256538D01*
X350889Y256537D01*
X350870Y256542D01*
X350767Y256534D01*
X350663Y256532D01*
X350645Y256525D01*
X350625Y256523D01*
X350530Y256483D01*
X350432Y256447D01*
X350417Y256435D01*
X350398Y256427D01*
X350267Y256322D01*
X348971Y255025D01*
X345429Y255025D01*
X342925Y257529D01*
X342925Y261071D01*
X345429Y263575D01*
X348971Y263575D01*
X350736Y261810D01*
X350810Y261757D01*
X350879Y261697D01*
X350909Y261685D01*
X350935Y261666D01*
X351022Y261639D01*
X351107Y261605D01*
X351148Y261601D01*
X351171Y261594D01*
X351203Y261595D01*
X351274Y261587D01*
X352547Y261587D01*
X369687Y244447D01*
X369687Y194663D01*
X369701Y194572D01*
X369709Y194482D01*
X369721Y194452D01*
X369726Y194420D01*
X369769Y194339D01*
X369805Y194255D01*
X369831Y194223D01*
X369842Y194202D01*
X369865Y194180D01*
X369910Y194124D01*
X383987Y180047D01*
X383987Y144462D01*
X384001Y144372D01*
X384009Y144281D01*
X384021Y144252D01*
X384026Y144220D01*
X384069Y144139D01*
X384105Y144055D01*
X384131Y144023D01*
X384142Y144002D01*
X384165Y143980D01*
X384210Y143924D01*
X388340Y139794D01*
X388398Y139752D01*
X388450Y139703D01*
X388497Y139681D01*
X388539Y139651D01*
X388608Y139630D01*
X388673Y139599D01*
X388725Y139594D01*
X388775Y139578D01*
X388846Y139580D01*
X388917Y139572D01*
X388968Y139583D01*
X389020Y139585D01*
X389088Y139609D01*
X389158Y139624D01*
X389202Y139651D01*
X389251Y139669D01*
X389307Y139714D01*
X389369Y139751D01*
X389403Y139790D01*
X389443Y139823D01*
X389482Y139883D01*
X389529Y139938D01*
X389548Y139986D01*
X389576Y140030D01*
X389594Y140099D01*
X389621Y140166D01*
X389629Y140237D01*
X389637Y140268D01*
X389635Y140292D01*
X389639Y140332D01*
X389639Y143257D01*
X391404Y145022D01*
X391457Y145096D01*
X391517Y145165D01*
X391529Y145195D01*
X391548Y145221D01*
X391575Y145308D01*
X391609Y145393D01*
X391613Y145434D01*
X391620Y145457D01*
X391619Y145489D01*
X391627Y145560D01*
X391627Y165612D01*
X391613Y165702D01*
X391605Y165793D01*
X391593Y165823D01*
X391588Y165855D01*
X391545Y165935D01*
X391509Y166019D01*
X391483Y166051D01*
X391472Y166072D01*
X391449Y166094D01*
X391404Y166150D01*
X389725Y167829D01*
X389725Y171371D01*
X392229Y173875D01*
X395771Y173875D01*
X398275Y171371D01*
X398275Y167829D01*
X396424Y165978D01*
X396371Y165904D01*
X396311Y165835D01*
X396299Y165805D01*
X396280Y165779D01*
X396253Y165692D01*
X396219Y165607D01*
X396215Y165566D01*
X396208Y165543D01*
X396209Y165511D01*
X396201Y165440D01*
X396201Y145560D01*
X396215Y145470D01*
X396223Y145379D01*
X396235Y145349D01*
X396240Y145317D01*
X396283Y145237D01*
X396319Y145153D01*
X396345Y145121D01*
X396356Y145100D01*
X396379Y145078D01*
X396424Y145022D01*
X398189Y143257D01*
X398189Y139715D01*
X395685Y137211D01*
X392143Y137211D01*
X391986Y137368D01*
X391928Y137410D01*
X391876Y137460D01*
X391829Y137482D01*
X391787Y137512D01*
X391718Y137533D01*
X391653Y137563D01*
X391601Y137569D01*
X391551Y137584D01*
X391480Y137582D01*
X391409Y137590D01*
X391358Y137579D01*
X391306Y137578D01*
X391238Y137553D01*
X391168Y137538D01*
X391123Y137511D01*
X391075Y137493D01*
X391019Y137449D01*
X390957Y137412D01*
X390923Y137372D01*
X390883Y137340D01*
X390844Y137280D01*
X390797Y137225D01*
X390778Y137177D01*
X390750Y137133D01*
X390732Y137063D01*
X390705Y136997D01*
X390697Y136925D01*
X390689Y136894D01*
X390691Y136871D01*
X390687Y136830D01*
X390687Y128153D01*
X388410Y125876D01*
X388357Y125802D01*
X388297Y125732D01*
X388285Y125702D01*
X388266Y125676D01*
X388239Y125589D01*
X388205Y125504D01*
X388201Y125463D01*
X388194Y125441D01*
X388195Y125409D01*
X388187Y125337D01*
X388187Y123674D01*
X388201Y123584D01*
X388209Y123493D01*
X388221Y123463D01*
X388226Y123431D01*
X388269Y123351D01*
X388305Y123267D01*
X388331Y123235D01*
X388342Y123214D01*
X388365Y123192D01*
X388410Y123136D01*
X390175Y121371D01*
X390175Y117829D01*
X387671Y115325D01*
X384129Y115325D01*
X382930Y116524D01*
X382872Y116566D01*
X382820Y116616D01*
X382773Y116638D01*
X382731Y116668D01*
X382662Y116689D01*
X382597Y116719D01*
X382545Y116725D01*
X382495Y116740D01*
X382424Y116738D01*
X382353Y116746D01*
X382302Y116735D01*
X382250Y116734D01*
X382182Y116709D01*
X382112Y116694D01*
X382067Y116667D01*
X382019Y116649D01*
X381963Y116605D01*
X381901Y116568D01*
X381867Y116528D01*
X381827Y116496D01*
X381788Y116435D01*
X381741Y116381D01*
X381722Y116333D01*
X381694Y116289D01*
X381676Y116219D01*
X381649Y116153D01*
X381641Y116081D01*
X381633Y116050D01*
X381635Y116027D01*
X381631Y115986D01*
X381631Y95450D01*
X381645Y95360D01*
X381653Y95269D01*
X381665Y95239D01*
X381670Y95207D01*
X381713Y95127D01*
X381749Y95043D01*
X381775Y95011D01*
X381786Y94990D01*
X381809Y94968D01*
X381854Y94912D01*
X389926Y86840D01*
X389984Y86798D01*
X390036Y86749D01*
X390083Y86727D01*
X390125Y86696D01*
X390194Y86675D01*
X390259Y86645D01*
X390311Y86639D01*
X390361Y86624D01*
X390432Y86626D01*
X390503Y86618D01*
X390554Y86629D01*
X390606Y86630D01*
X390674Y86655D01*
X390744Y86670D01*
X390789Y86697D01*
X390837Y86715D01*
X390893Y86760D01*
X390955Y86796D01*
X390989Y86836D01*
X391029Y86868D01*
X391068Y86929D01*
X391115Y86983D01*
X391134Y87032D01*
X391162Y87075D01*
X391180Y87145D01*
X391207Y87211D01*
X391215Y87283D01*
X391223Y87314D01*
X391221Y87337D01*
X391225Y87378D01*
X391225Y88271D01*
X393729Y90775D01*
X395064Y90775D01*
X395084Y90778D01*
X395103Y90776D01*
X395205Y90798D01*
X395307Y90814D01*
X395324Y90824D01*
X395344Y90828D01*
X395433Y90881D01*
X395524Y90930D01*
X395538Y90944D01*
X395555Y90954D01*
X395622Y91033D01*
X395694Y91108D01*
X395702Y91126D01*
X395715Y91141D01*
X395754Y91237D01*
X395797Y91331D01*
X395799Y91351D01*
X395807Y91369D01*
X395825Y91536D01*
X395825Y94271D01*
X398329Y96775D01*
X401871Y96775D01*
X403636Y95010D01*
X403710Y94957D01*
X403779Y94897D01*
X403809Y94885D01*
X403835Y94866D01*
X403922Y94839D01*
X404007Y94805D01*
X404048Y94801D01*
X404071Y94794D01*
X404103Y94795D01*
X404174Y94787D01*
X412437Y94787D01*
X412528Y94801D01*
X412618Y94809D01*
X412648Y94821D01*
X412680Y94826D01*
X412761Y94869D01*
X412845Y94905D01*
X412877Y94931D01*
X412898Y94942D01*
X412920Y94965D01*
X412976Y95010D01*
X430190Y112224D01*
X430243Y112298D01*
X430303Y112368D01*
X430315Y112398D01*
X430334Y112424D01*
X430361Y112511D01*
X430395Y112596D01*
X430399Y112637D01*
X430406Y112659D01*
X430405Y112691D01*
X430413Y112763D01*
X430413Y116330D01*
X430402Y116401D01*
X430400Y116473D01*
X430382Y116521D01*
X430374Y116573D01*
X430340Y116636D01*
X430315Y116704D01*
X430283Y116744D01*
X430258Y116790D01*
X430206Y116840D01*
X430162Y116896D01*
X430118Y116924D01*
X430080Y116960D01*
X430015Y116990D01*
X429955Y117029D01*
X429904Y117041D01*
X429857Y117063D01*
X429786Y117071D01*
X429716Y117089D01*
X429664Y117085D01*
X429613Y117090D01*
X429542Y117075D01*
X429471Y117069D01*
X429423Y117049D01*
X429372Y117038D01*
X429311Y117001D01*
X429245Y116973D01*
X429189Y116928D01*
X429161Y116912D01*
X429146Y116894D01*
X429114Y116868D01*
X427471Y115225D01*
X423929Y115225D01*
X422264Y116890D01*
X422190Y116943D01*
X422121Y117003D01*
X422091Y117015D01*
X422065Y117034D01*
X421978Y117061D01*
X421893Y117095D01*
X421852Y117099D01*
X421829Y117106D01*
X421797Y117105D01*
X421726Y117113D01*
X414074Y117113D01*
X413984Y117099D01*
X413893Y117091D01*
X413863Y117079D01*
X413831Y117074D01*
X413751Y117031D01*
X413667Y116995D01*
X413635Y116969D01*
X413614Y116958D01*
X413592Y116935D01*
X413536Y116890D01*
X411771Y115125D01*
X408229Y115125D01*
X405725Y117629D01*
X405725Y121171D01*
X408229Y123675D01*
X411771Y123675D01*
X413536Y121910D01*
X413610Y121857D01*
X413679Y121797D01*
X413709Y121785D01*
X413735Y121766D01*
X413822Y121739D01*
X413907Y121705D01*
X413948Y121701D01*
X413971Y121694D01*
X414003Y121695D01*
X414074Y121687D01*
X421526Y121687D01*
X421616Y121701D01*
X421707Y121709D01*
X421737Y121721D01*
X421769Y121726D01*
X421849Y121769D01*
X421933Y121805D01*
X421965Y121831D01*
X421986Y121842D01*
X422008Y121865D01*
X422064Y121910D01*
X423929Y123775D01*
X427471Y123775D01*
X429114Y122132D01*
X429172Y122090D01*
X429224Y122040D01*
X429271Y122018D01*
X429313Y121988D01*
X429382Y121967D01*
X429447Y121937D01*
X429499Y121931D01*
X429549Y121916D01*
X429620Y121918D01*
X429691Y121910D01*
X429742Y121921D01*
X429794Y121922D01*
X429862Y121947D01*
X429932Y121962D01*
X429977Y121989D01*
X430025Y122007D01*
X430081Y122051D01*
X430143Y122088D01*
X430177Y122128D01*
X430217Y122160D01*
X430256Y122221D01*
X430303Y122275D01*
X430322Y122323D01*
X430350Y122367D01*
X430368Y122437D01*
X430395Y122503D01*
X430403Y122575D01*
X430411Y122606D01*
X430409Y122629D01*
X430413Y122670D01*
X430413Y181937D01*
X430399Y182028D01*
X430391Y182118D01*
X430379Y182148D01*
X430374Y182180D01*
X430331Y182261D01*
X430295Y182345D01*
X430269Y182377D01*
X430258Y182398D01*
X430235Y182420D01*
X430190Y182476D01*
X425213Y187453D01*
X425213Y222647D01*
X429232Y226666D01*
X429285Y226740D01*
X429345Y226810D01*
X429357Y226840D01*
X429376Y226866D01*
X429403Y226953D01*
X429437Y227038D01*
X429441Y227079D01*
X429448Y227101D01*
X429447Y227133D01*
X429455Y227205D01*
X429455Y231388D01*
X434812Y236745D01*
X442388Y236745D01*
X447745Y231388D01*
X447745Y223812D01*
X442388Y218455D01*
X434812Y218455D01*
X431689Y221578D01*
X431673Y221590D01*
X431660Y221606D01*
X431573Y221662D01*
X431489Y221722D01*
X431470Y221728D01*
X431453Y221739D01*
X431353Y221764D01*
X431254Y221794D01*
X431234Y221794D01*
X431215Y221799D01*
X431112Y221791D01*
X431008Y221788D01*
X430990Y221781D01*
X430970Y221780D01*
X430875Y221739D01*
X430777Y221704D01*
X430762Y221691D01*
X430743Y221683D01*
X430612Y221578D01*
X430010Y220976D01*
X429956Y220902D01*
X429897Y220832D01*
X429885Y220802D01*
X429866Y220776D01*
X429839Y220689D01*
X429805Y220604D01*
X429801Y220563D01*
X429794Y220541D01*
X429795Y220509D01*
X429787Y220437D01*
X429787Y208157D01*
X429798Y208086D01*
X429800Y208015D01*
X429818Y207966D01*
X429826Y207914D01*
X429860Y207851D01*
X429885Y207784D01*
X429917Y207743D01*
X429942Y207697D01*
X429994Y207648D01*
X430038Y207592D01*
X430082Y207563D01*
X430120Y207528D01*
X430185Y207497D01*
X430245Y207459D01*
X430296Y207446D01*
X430343Y207424D01*
X430414Y207416D01*
X430484Y207399D01*
X430536Y207403D01*
X430587Y207397D01*
X430658Y207412D01*
X430729Y207418D01*
X430777Y207438D01*
X430828Y207449D01*
X430889Y207486D01*
X430955Y207514D01*
X431011Y207559D01*
X431039Y207575D01*
X431054Y207593D01*
X431086Y207619D01*
X434812Y211345D01*
X442388Y211345D01*
X447614Y206119D01*
X447672Y206077D01*
X447724Y206028D01*
X447771Y206006D01*
X447813Y205975D01*
X447882Y205954D01*
X447947Y205924D01*
X447999Y205918D01*
X448049Y205903D01*
X448120Y205905D01*
X448191Y205897D01*
X448242Y205908D01*
X448294Y205909D01*
X448362Y205934D01*
X448432Y205949D01*
X448477Y205976D01*
X448525Y205994D01*
X448581Y206039D01*
X448643Y206075D01*
X448677Y206115D01*
X448717Y206147D01*
X448756Y206208D01*
X448803Y206262D01*
X448822Y206311D01*
X448850Y206354D01*
X448868Y206424D01*
X448895Y206490D01*
X448903Y206562D01*
X448911Y206593D01*
X448909Y206616D01*
X448913Y206657D01*
X448913Y217247D01*
X454632Y222966D01*
X454685Y223040D01*
X454745Y223110D01*
X454757Y223140D01*
X454776Y223166D01*
X454803Y223253D01*
X454837Y223338D01*
X454841Y223379D01*
X454848Y223401D01*
X454847Y223433D01*
X454855Y223505D01*
X454855Y231388D01*
X460212Y236745D01*
X467788Y236745D01*
X473145Y231388D01*
X473145Y231028D01*
X473156Y230957D01*
X473158Y230885D01*
X473176Y230837D01*
X473184Y230785D01*
X473218Y230722D01*
X473243Y230654D01*
X473275Y230614D01*
X473300Y230568D01*
X473351Y230518D01*
X473396Y230462D01*
X473440Y230434D01*
X473478Y230398D01*
X473543Y230368D01*
X473603Y230329D01*
X473654Y230317D01*
X473701Y230295D01*
X473772Y230287D01*
X473842Y230269D01*
X473894Y230273D01*
X473945Y230268D01*
X474016Y230283D01*
X474087Y230289D01*
X474135Y230309D01*
X474186Y230320D01*
X474247Y230357D01*
X474313Y230385D01*
X474369Y230430D01*
X474397Y230446D01*
X474412Y230464D01*
X474444Y230490D01*
X474829Y230875D01*
X478371Y230875D01*
X480875Y228371D01*
X480875Y224829D01*
X478371Y222325D01*
X474829Y222325D01*
X473782Y223373D01*
X473766Y223384D01*
X473753Y223400D01*
X473666Y223456D01*
X473582Y223516D01*
X473563Y223522D01*
X473546Y223533D01*
X473446Y223558D01*
X473347Y223589D01*
X473327Y223588D01*
X473308Y223593D01*
X473205Y223585D01*
X473101Y223582D01*
X473082Y223575D01*
X473063Y223574D01*
X472968Y223533D01*
X472870Y223498D01*
X472855Y223485D01*
X472836Y223478D01*
X472705Y223373D01*
X467788Y218455D01*
X460212Y218455D01*
X458939Y219728D01*
X458923Y219740D01*
X458910Y219756D01*
X458823Y219812D01*
X458739Y219872D01*
X458720Y219878D01*
X458703Y219889D01*
X458603Y219914D01*
X458504Y219944D01*
X458484Y219944D01*
X458465Y219949D01*
X458362Y219941D01*
X458258Y219938D01*
X458239Y219931D01*
X458220Y219930D01*
X458125Y219889D01*
X458027Y219854D01*
X458012Y219841D01*
X457993Y219833D01*
X457862Y219728D01*
X453710Y215576D01*
X453656Y215502D01*
X453597Y215432D01*
X453585Y215402D01*
X453566Y215376D01*
X453539Y215289D01*
X453505Y215204D01*
X453501Y215163D01*
X453494Y215141D01*
X453495Y215109D01*
X453487Y215037D01*
X453487Y196053D01*
X451924Y194490D01*
X441306Y183872D01*
X441253Y183798D01*
X441193Y183728D01*
X441181Y183698D01*
X441162Y183672D01*
X441135Y183585D01*
X441101Y183500D01*
X441097Y183459D01*
X441090Y183437D01*
X441091Y183405D01*
X441083Y183333D01*
X441083Y27549D01*
X419047Y5513D01*
X389974Y5513D01*
X389884Y5499D01*
X389793Y5491D01*
X389763Y5479D01*
X389731Y5474D01*
X389651Y5431D01*
X389567Y5395D01*
X389535Y5369D01*
X389514Y5358D01*
X389492Y5335D01*
X389436Y5290D01*
X389208Y5062D01*
X389166Y5004D01*
X389116Y4952D01*
X389094Y4905D01*
X389064Y4863D01*
X389043Y4794D01*
X389013Y4729D01*
X389007Y4677D01*
X388992Y4627D01*
X388994Y4556D01*
X388986Y4485D01*
X388997Y4434D01*
X388998Y4382D01*
X389023Y4314D01*
X389038Y4244D01*
X389065Y4199D01*
X389083Y4151D01*
X389127Y4095D01*
X389164Y4033D01*
X389204Y3999D01*
X389236Y3959D01*
X389296Y3920D01*
X389351Y3873D01*
X389399Y3854D01*
X389443Y3826D01*
X389513Y3808D01*
X389579Y3781D01*
X389650Y3773D01*
X389682Y3765D01*
X389705Y3767D01*
X389746Y3763D01*
X466154Y3763D01*
X466244Y3777D01*
X466335Y3785D01*
X466365Y3797D01*
X466397Y3802D01*
X466478Y3845D01*
X466561Y3881D01*
X466594Y3907D01*
X466614Y3918D01*
X466636Y3941D01*
X466692Y3986D01*
X474042Y11336D01*
X474095Y11410D01*
X474155Y11479D01*
X474167Y11509D01*
X474186Y11535D01*
X474213Y11622D01*
X474247Y11707D01*
X474251Y11748D01*
X474258Y11770D01*
X474257Y11803D01*
X474265Y11874D01*
X474265Y71254D01*
X477192Y85967D01*
X482932Y99826D01*
X491266Y112299D01*
X501873Y122906D01*
X514346Y131240D01*
X528205Y136980D01*
X542918Y139907D01*
X602044Y139907D01*
X602134Y139921D01*
X602225Y139929D01*
X602255Y139941D01*
X602287Y139946D01*
X602368Y139989D01*
X602451Y140025D01*
X602484Y140051D01*
X602504Y140062D01*
X602526Y140085D01*
X602582Y140130D01*
X609932Y147480D01*
X609985Y147554D01*
X610045Y147623D01*
X610057Y147653D01*
X610076Y147679D01*
X610103Y147766D01*
X610137Y147851D01*
X610141Y147892D01*
X610148Y147914D01*
X610147Y147947D01*
X610155Y148018D01*
X610155Y286322D01*
X610141Y286412D01*
X610133Y286503D01*
X610121Y286533D01*
X610116Y286565D01*
X610073Y286646D01*
X610037Y286729D01*
X610011Y286762D01*
X610000Y286782D01*
X609977Y286804D01*
X609932Y286860D01*
X602582Y294210D01*
X602508Y294263D01*
X602439Y294323D01*
X602409Y294335D01*
X602383Y294354D01*
X602296Y294381D01*
X602211Y294415D01*
X602170Y294419D01*
X602148Y294426D01*
X602115Y294425D01*
X602044Y294433D01*
X542918Y294433D01*
X528205Y297360D01*
X514346Y303100D01*
X501873Y311434D01*
X491266Y322041D01*
X482932Y334514D01*
X477192Y348373D01*
X474265Y363086D01*
X474265Y422466D01*
X474263Y422479D01*
X474264Y422490D01*
X474253Y422542D01*
X474251Y422556D01*
X474243Y422647D01*
X474231Y422677D01*
X474226Y422709D01*
X474183Y422790D01*
X474147Y422873D01*
X474121Y422906D01*
X474110Y422926D01*
X474087Y422948D01*
X474042Y423004D01*
X466692Y430354D01*
X466618Y430407D01*
X466549Y430467D01*
X466519Y430479D01*
X466493Y430498D01*
X466406Y430525D01*
X466321Y430559D01*
X466280Y430563D01*
X466258Y430570D01*
X466225Y430569D01*
X466154Y430577D01*
X465212Y430577D01*
X465192Y430574D01*
X465173Y430576D01*
X465071Y430554D01*
X464969Y430538D01*
X464952Y430528D01*
X464932Y430524D01*
X464843Y430471D01*
X464752Y430422D01*
X464738Y430408D01*
X464721Y430398D01*
X464654Y430319D01*
X464582Y430244D01*
X464574Y430226D01*
X464561Y430211D01*
X464522Y430115D01*
X464479Y430021D01*
X464477Y430001D01*
X464469Y429983D01*
X464451Y429816D01*
X464451Y426160D01*
X464450Y426159D01*
X448212Y426159D01*
X448192Y426156D01*
X448173Y426158D01*
X448071Y426136D01*
X447969Y426120D01*
X447952Y426110D01*
X447932Y426106D01*
X447843Y426053D01*
X447752Y426004D01*
X447738Y425990D01*
X447721Y425980D01*
X447654Y425901D01*
X447582Y425826D01*
X447574Y425808D01*
X447561Y425793D01*
X447522Y425697D01*
X447479Y425603D01*
X447477Y425583D01*
X447469Y425565D01*
X447451Y425398D01*
X447451Y394922D01*
X447454Y394902D01*
X447452Y394883D01*
X447474Y394781D01*
X447490Y394679D01*
X447500Y394662D01*
X447504Y394642D01*
X447557Y394553D01*
X447606Y394462D01*
X447620Y394448D01*
X447630Y394431D01*
X447709Y394364D01*
X447784Y394292D01*
X447802Y394284D01*
X447817Y394271D01*
X447913Y394232D01*
X448007Y394189D01*
X448027Y394187D01*
X448045Y394179D01*
X448212Y394161D01*
X464450Y394161D01*
X464451Y394160D01*
X464451Y347160D01*
X464450Y347159D01*
X353450Y347159D01*
X353449Y347160D01*
X353449Y394160D01*
X353450Y394161D01*
X372688Y394161D01*
X372708Y394164D01*
X372727Y394162D01*
X372829Y394184D01*
X372931Y394200D01*
X372948Y394210D01*
X372968Y394214D01*
X373057Y394267D01*
X373148Y394316D01*
X373162Y394330D01*
X373179Y394340D01*
X373246Y394419D01*
X373318Y394494D01*
X373326Y394512D01*
X373339Y394527D01*
X373378Y394623D01*
X373421Y394717D01*
X373423Y394737D01*
X373431Y394755D01*
X373449Y394922D01*
X373449Y425398D01*
X373446Y425418D01*
X373448Y425437D01*
X373426Y425539D01*
X373410Y425641D01*
X373400Y425658D01*
X373396Y425678D01*
X373343Y425767D01*
X373294Y425858D01*
X373280Y425872D01*
X373270Y425889D01*
X373191Y425956D01*
X373116Y426028D01*
X373098Y426036D01*
X373083Y426049D01*
X372987Y426088D01*
X372893Y426131D01*
X372873Y426133D01*
X372855Y426141D01*
X372688Y426159D01*
X353450Y426159D01*
X353449Y426160D01*
X353449Y429816D01*
X353446Y429836D01*
X353448Y429855D01*
X353426Y429957D01*
X353410Y430059D01*
X353400Y430076D01*
X353396Y430096D01*
X353343Y430185D01*
X353294Y430276D01*
X353280Y430290D01*
X353270Y430307D01*
X353191Y430374D01*
X353116Y430446D01*
X353098Y430454D01*
X353083Y430467D01*
X352987Y430506D01*
X352893Y430549D01*
X352873Y430551D01*
X352855Y430559D01*
X352688Y430577D01*
X148526Y430577D01*
X148436Y430563D01*
X148345Y430555D01*
X148315Y430543D01*
X148283Y430538D01*
X148202Y430495D01*
X148119Y430459D01*
X148086Y430433D01*
X148066Y430422D01*
X148044Y430399D01*
X147988Y430354D01*
X140638Y423004D01*
X140585Y422930D01*
X140525Y422861D01*
X140513Y422831D01*
X140494Y422805D01*
X140467Y422718D01*
X140433Y422633D01*
X140429Y422592D01*
X140422Y422570D01*
X140423Y422537D01*
X140415Y422466D01*
X140415Y363086D01*
X137488Y348373D01*
X131748Y334514D01*
X123414Y322041D01*
X112807Y311434D01*
X100334Y303100D01*
X86475Y297360D01*
X71762Y294433D01*
X12636Y294433D01*
X12546Y294419D01*
X12455Y294411D01*
X12425Y294399D01*
X12393Y294394D01*
X12312Y294351D01*
X12229Y294315D01*
X12196Y294289D01*
X12176Y294278D01*
X12154Y294255D01*
X12098Y294210D01*
X4748Y286860D01*
X4695Y286786D01*
X4635Y286717D01*
X4623Y286687D01*
X4604Y286661D01*
X4577Y286574D01*
X4543Y286489D01*
X4539Y286448D01*
X4532Y286426D01*
X4533Y286393D01*
X4525Y286322D01*
X4525Y148018D01*
X4539Y147928D01*
X4547Y147837D01*
X4559Y147807D01*
X4564Y147775D01*
X4607Y147694D01*
X4643Y147611D01*
X4669Y147578D01*
X4680Y147558D01*
X4703Y147536D01*
X4748Y147480D01*
X12098Y140130D01*
X12172Y140077D01*
X12241Y140017D01*
X12271Y140005D01*
X12297Y139986D01*
X12384Y139959D01*
X12469Y139925D01*
X12510Y139921D01*
X12532Y139914D01*
X12565Y139915D01*
X12636Y139907D01*
X71762Y139907D01*
X86475Y136980D01*
X100334Y131240D01*
X112807Y122906D01*
X123414Y112299D01*
X131748Y99826D01*
X137488Y85967D01*
X140415Y71254D01*
X140415Y11874D01*
X140429Y11784D01*
X140437Y11693D01*
X140449Y11663D01*
X140454Y11631D01*
X140497Y11550D01*
X140533Y11467D01*
X140559Y11434D01*
X140570Y11414D01*
X140593Y11392D01*
X140638Y11336D01*
X147988Y3986D01*
X148062Y3933D01*
X148131Y3873D01*
X148161Y3861D01*
X148187Y3842D01*
X148274Y3815D01*
X148359Y3781D01*
X148400Y3777D01*
X148422Y3770D01*
X148455Y3771D01*
X148526Y3763D01*
X382054Y3763D01*
X382125Y3774D01*
G37*
%LPC*%
G36*
X295729Y43125D02*
X295729Y43125D01*
X293225Y45629D01*
X293225Y49171D01*
X294990Y50936D01*
X295043Y51010D01*
X295103Y51079D01*
X295115Y51109D01*
X295134Y51135D01*
X295161Y51222D01*
X295195Y51307D01*
X295199Y51348D01*
X295206Y51371D01*
X295205Y51403D01*
X295213Y51474D01*
X295213Y52415D01*
X295199Y52506D01*
X295191Y52596D01*
X295179Y52626D01*
X295174Y52658D01*
X295131Y52739D01*
X295095Y52823D01*
X295069Y52855D01*
X295058Y52876D01*
X295035Y52898D01*
X294990Y52954D01*
X285829Y62115D01*
X285829Y81674D01*
X288458Y84303D01*
X288511Y84377D01*
X288571Y84446D01*
X288583Y84476D01*
X288602Y84503D01*
X288629Y84589D01*
X288663Y84674D01*
X288667Y84715D01*
X288674Y84738D01*
X288673Y84770D01*
X288681Y84841D01*
X288681Y104558D01*
X290446Y106323D01*
X290499Y106397D01*
X290559Y106467D01*
X290571Y106497D01*
X290590Y106523D01*
X290617Y106610D01*
X290651Y106695D01*
X290655Y106736D01*
X290662Y106758D01*
X290661Y106790D01*
X290669Y106862D01*
X290669Y125850D01*
X290655Y125940D01*
X290647Y126031D01*
X290635Y126061D01*
X290630Y126093D01*
X290587Y126173D01*
X290551Y126257D01*
X290525Y126289D01*
X290514Y126310D01*
X290491Y126332D01*
X290446Y126388D01*
X240310Y176524D01*
X240236Y176578D01*
X240167Y176637D01*
X240136Y176649D01*
X240110Y176668D01*
X240023Y176695D01*
X239938Y176729D01*
X239897Y176733D01*
X239875Y176740D01*
X239843Y176740D01*
X239772Y176747D01*
X210236Y176747D01*
X210216Y176744D01*
X210197Y176746D01*
X210095Y176724D01*
X209993Y176708D01*
X209976Y176698D01*
X209956Y176694D01*
X209867Y176641D01*
X209776Y176593D01*
X209762Y176578D01*
X209745Y176568D01*
X209678Y176489D01*
X209606Y176414D01*
X209598Y176396D01*
X209585Y176381D01*
X209546Y176285D01*
X209503Y176191D01*
X209501Y176171D01*
X209493Y176153D01*
X209475Y175986D01*
X209475Y175429D01*
X206971Y172925D01*
X203429Y172925D01*
X200925Y175429D01*
X200925Y176254D01*
X200914Y176324D01*
X200912Y176396D01*
X200894Y176445D01*
X200886Y176496D01*
X200852Y176560D01*
X200827Y176627D01*
X200795Y176668D01*
X200770Y176714D01*
X200718Y176763D01*
X200674Y176819D01*
X200630Y176847D01*
X200592Y176883D01*
X200527Y176913D01*
X200467Y176952D01*
X200416Y176965D01*
X200369Y176987D01*
X200298Y176995D01*
X200228Y177012D01*
X200176Y177008D01*
X200125Y177014D01*
X200054Y176999D01*
X199983Y176993D01*
X199935Y176973D01*
X199884Y176962D01*
X199823Y176925D01*
X199757Y176897D01*
X199701Y176852D01*
X199673Y176835D01*
X199658Y176818D01*
X199626Y176792D01*
X192398Y169564D01*
X192345Y169490D01*
X192285Y169420D01*
X192273Y169390D01*
X192254Y169364D01*
X192227Y169277D01*
X192193Y169192D01*
X192189Y169151D01*
X192182Y169129D01*
X192183Y169097D01*
X192175Y169025D01*
X192175Y167836D01*
X192178Y167816D01*
X192176Y167797D01*
X192198Y167695D01*
X192214Y167593D01*
X192224Y167576D01*
X192228Y167556D01*
X192281Y167467D01*
X192330Y167376D01*
X192344Y167362D01*
X192354Y167345D01*
X192433Y167278D01*
X192508Y167206D01*
X192526Y167198D01*
X192541Y167185D01*
X192637Y167146D01*
X192731Y167103D01*
X192751Y167101D01*
X192769Y167093D01*
X192936Y167075D01*
X195771Y167075D01*
X197028Y165818D01*
X197102Y165765D01*
X197171Y165705D01*
X197201Y165693D01*
X197227Y165674D01*
X197314Y165647D01*
X197399Y165613D01*
X197440Y165609D01*
X197463Y165602D01*
X197495Y165603D01*
X197566Y165595D01*
X219758Y165595D01*
X224035Y161318D01*
X224109Y161265D01*
X224178Y161205D01*
X224208Y161193D01*
X224234Y161174D01*
X224321Y161147D01*
X224406Y161113D01*
X224447Y161109D01*
X224469Y161102D01*
X224502Y161103D01*
X224573Y161095D01*
X239327Y161095D01*
X239417Y161109D01*
X239508Y161117D01*
X239538Y161129D01*
X239570Y161134D01*
X239650Y161177D01*
X239692Y161195D01*
X242058Y161195D01*
X242755Y160498D01*
X242829Y160445D01*
X242898Y160385D01*
X242928Y160373D01*
X242954Y160354D01*
X243041Y160327D01*
X243126Y160293D01*
X243167Y160289D01*
X243189Y160282D01*
X243222Y160283D01*
X243293Y160275D01*
X244171Y160275D01*
X246675Y157771D01*
X246675Y154229D01*
X244171Y151725D01*
X240629Y151725D01*
X238125Y154229D01*
X238125Y154744D01*
X238122Y154764D01*
X238124Y154783D01*
X238102Y154885D01*
X238086Y154987D01*
X238076Y155004D01*
X238072Y155024D01*
X238019Y155113D01*
X237970Y155204D01*
X237956Y155218D01*
X237946Y155235D01*
X237867Y155302D01*
X237792Y155374D01*
X237774Y155382D01*
X237759Y155395D01*
X237663Y155434D01*
X237569Y155477D01*
X237549Y155479D01*
X237531Y155487D01*
X237364Y155505D01*
X221942Y155505D01*
X217665Y159782D01*
X217591Y159835D01*
X217522Y159895D01*
X217492Y159907D01*
X217466Y159926D01*
X217379Y159953D01*
X217294Y159987D01*
X217253Y159991D01*
X217231Y159998D01*
X217198Y159997D01*
X217127Y160005D01*
X197566Y160005D01*
X197476Y159991D01*
X197385Y159983D01*
X197355Y159971D01*
X197323Y159966D01*
X197243Y159923D01*
X197159Y159887D01*
X197127Y159861D01*
X197106Y159850D01*
X197084Y159827D01*
X197028Y159782D01*
X195771Y158525D01*
X192229Y158525D01*
X189725Y161029D01*
X189725Y163264D01*
X189722Y163284D01*
X189724Y163303D01*
X189702Y163405D01*
X189686Y163507D01*
X189676Y163524D01*
X189672Y163544D01*
X189619Y163633D01*
X189570Y163724D01*
X189556Y163738D01*
X189546Y163755D01*
X189467Y163822D01*
X189392Y163894D01*
X189374Y163902D01*
X189359Y163915D01*
X189263Y163954D01*
X189169Y163997D01*
X189149Y163999D01*
X189131Y164007D01*
X188964Y164025D01*
X185912Y164025D01*
X185892Y164022D01*
X185873Y164024D01*
X185771Y164002D01*
X185669Y163986D01*
X185652Y163976D01*
X185632Y163972D01*
X185543Y163919D01*
X185452Y163870D01*
X185438Y163856D01*
X185421Y163846D01*
X185354Y163767D01*
X185282Y163692D01*
X185274Y163674D01*
X185261Y163659D01*
X185222Y163563D01*
X185179Y163469D01*
X185177Y163449D01*
X185169Y163431D01*
X185151Y163264D01*
X185151Y157810D01*
X185165Y157720D01*
X185173Y157629D01*
X185185Y157599D01*
X185190Y157567D01*
X185233Y157487D01*
X185269Y157403D01*
X185295Y157371D01*
X185306Y157350D01*
X185329Y157328D01*
X185374Y157272D01*
X187075Y155571D01*
X187075Y152029D01*
X184571Y149525D01*
X181029Y149525D01*
X178525Y152029D01*
X178525Y155571D01*
X180354Y157400D01*
X180407Y157474D01*
X180467Y157543D01*
X180479Y157573D01*
X180498Y157599D01*
X180525Y157686D01*
X180559Y157771D01*
X180563Y157812D01*
X180570Y157835D01*
X180569Y157867D01*
X180577Y157938D01*
X180577Y178455D01*
X193009Y190887D01*
X245347Y190887D01*
X304387Y131847D01*
X304387Y103074D01*
X304401Y102984D01*
X304409Y102893D01*
X304421Y102863D01*
X304426Y102831D01*
X304469Y102751D01*
X304505Y102667D01*
X304531Y102635D01*
X304542Y102614D01*
X304565Y102592D01*
X304610Y102536D01*
X306375Y100771D01*
X306375Y97229D01*
X303871Y94725D01*
X300112Y94725D01*
X300092Y94722D01*
X300073Y94724D01*
X299971Y94702D01*
X299869Y94686D01*
X299852Y94676D01*
X299832Y94672D01*
X299743Y94619D01*
X299652Y94570D01*
X299638Y94556D01*
X299621Y94546D01*
X299554Y94467D01*
X299482Y94392D01*
X299474Y94374D01*
X299461Y94359D01*
X299422Y94263D01*
X299379Y94169D01*
X299377Y94149D01*
X299369Y94131D01*
X299351Y93964D01*
X299351Y79810D01*
X299365Y79720D01*
X299373Y79629D01*
X299385Y79599D01*
X299390Y79567D01*
X299433Y79487D01*
X299469Y79403D01*
X299495Y79370D01*
X299506Y79350D01*
X299529Y79328D01*
X299574Y79272D01*
X301375Y77471D01*
X301375Y73929D01*
X298871Y71425D01*
X298224Y71425D01*
X298154Y71414D01*
X298082Y71412D01*
X298033Y71394D01*
X297982Y71386D01*
X297918Y71352D01*
X297851Y71327D01*
X297810Y71295D01*
X297764Y71270D01*
X297715Y71218D01*
X297659Y71174D01*
X297631Y71130D01*
X297595Y71092D01*
X297565Y71027D01*
X297526Y70967D01*
X297513Y70916D01*
X297491Y70869D01*
X297483Y70798D01*
X297466Y70728D01*
X297470Y70676D01*
X297464Y70625D01*
X297479Y70554D01*
X297485Y70483D01*
X297505Y70435D01*
X297516Y70384D01*
X297553Y70323D01*
X297581Y70257D01*
X297626Y70201D01*
X297643Y70173D01*
X297660Y70158D01*
X297686Y70126D01*
X299387Y68425D01*
X299387Y65274D01*
X299401Y65184D01*
X299409Y65093D01*
X299421Y65063D01*
X299426Y65031D01*
X299469Y64951D01*
X299505Y64867D01*
X299531Y64835D01*
X299542Y64814D01*
X299565Y64792D01*
X299610Y64736D01*
X301375Y62971D01*
X301375Y59429D01*
X298717Y56772D01*
X298705Y56755D01*
X298690Y56743D01*
X298634Y56656D01*
X298573Y56572D01*
X298568Y56553D01*
X298557Y56536D01*
X298531Y56436D01*
X298501Y56337D01*
X298502Y56317D01*
X298497Y56297D01*
X298505Y56195D01*
X298507Y56091D01*
X298514Y56072D01*
X298516Y56052D01*
X298556Y55957D01*
X298592Y55860D01*
X298604Y55844D01*
X298612Y55826D01*
X298717Y55695D01*
X299787Y54625D01*
X299787Y51474D01*
X299801Y51384D01*
X299809Y51293D01*
X299821Y51263D01*
X299826Y51231D01*
X299869Y51151D01*
X299905Y51067D01*
X299931Y51035D01*
X299942Y51014D01*
X299965Y50992D01*
X300010Y50936D01*
X301775Y49171D01*
X301775Y45629D01*
X299271Y43125D01*
X295729Y43125D01*
G37*
%LPD*%
G36*
X350816Y192901D02*
X350816Y192901D01*
X350907Y192909D01*
X350937Y192921D01*
X350969Y192926D01*
X351049Y192969D01*
X351133Y193005D01*
X351165Y193031D01*
X351186Y193042D01*
X351208Y193065D01*
X351264Y193110D01*
X353029Y194875D01*
X356571Y194875D01*
X358014Y193432D01*
X358072Y193390D01*
X358124Y193340D01*
X358171Y193318D01*
X358213Y193288D01*
X358282Y193267D01*
X358347Y193237D01*
X358399Y193231D01*
X358449Y193216D01*
X358520Y193218D01*
X358591Y193210D01*
X358642Y193221D01*
X358694Y193222D01*
X358762Y193247D01*
X358832Y193262D01*
X358877Y193289D01*
X358925Y193307D01*
X358981Y193351D01*
X359043Y193388D01*
X359077Y193428D01*
X359117Y193460D01*
X359156Y193521D01*
X359203Y193575D01*
X359222Y193623D01*
X359250Y193667D01*
X359268Y193737D01*
X359295Y193803D01*
X359303Y193875D01*
X359311Y193906D01*
X359309Y193929D01*
X359313Y193970D01*
X359313Y231937D01*
X359299Y232027D01*
X359291Y232118D01*
X359279Y232148D01*
X359274Y232180D01*
X359231Y232261D01*
X359195Y232345D01*
X359169Y232377D01*
X359158Y232398D01*
X359135Y232420D01*
X359090Y232476D01*
X352076Y239490D01*
X352002Y239543D01*
X351932Y239603D01*
X351902Y239615D01*
X351876Y239634D01*
X351789Y239661D01*
X351704Y239695D01*
X351663Y239699D01*
X351641Y239706D01*
X351609Y239705D01*
X351537Y239713D01*
X339274Y239713D01*
X339184Y239699D01*
X339093Y239691D01*
X339063Y239679D01*
X339031Y239674D01*
X338951Y239631D01*
X338867Y239595D01*
X338835Y239569D01*
X338814Y239558D01*
X338792Y239535D01*
X338736Y239490D01*
X336971Y237725D01*
X333429Y237725D01*
X330925Y240229D01*
X330925Y242726D01*
X330911Y242816D01*
X330903Y242907D01*
X330891Y242936D01*
X330886Y242968D01*
X330843Y243049D01*
X330807Y243133D01*
X330781Y243165D01*
X330770Y243186D01*
X330747Y243208D01*
X330702Y243264D01*
X329376Y244590D01*
X329302Y244643D01*
X329232Y244703D01*
X329202Y244715D01*
X329176Y244734D01*
X329089Y244761D01*
X329004Y244795D01*
X328963Y244799D01*
X328941Y244806D01*
X328909Y244805D01*
X328838Y244813D01*
X311974Y244813D01*
X311884Y244799D01*
X311793Y244791D01*
X311763Y244779D01*
X311731Y244774D01*
X311651Y244731D01*
X311567Y244695D01*
X311535Y244669D01*
X311514Y244658D01*
X311492Y244635D01*
X311436Y244590D01*
X309671Y242825D01*
X306129Y242825D01*
X305064Y243890D01*
X304990Y243943D01*
X304921Y244003D01*
X304891Y244015D01*
X304865Y244034D01*
X304778Y244061D01*
X304693Y244095D01*
X304652Y244099D01*
X304630Y244106D01*
X304597Y244105D01*
X304526Y244113D01*
X297753Y244113D01*
X296190Y245676D01*
X293534Y248332D01*
X293476Y248374D01*
X293424Y248423D01*
X293377Y248445D01*
X293335Y248475D01*
X293266Y248496D01*
X293201Y248527D01*
X293149Y248532D01*
X293099Y248548D01*
X293028Y248546D01*
X292957Y248554D01*
X292906Y248543D01*
X292854Y248541D01*
X292786Y248517D01*
X292716Y248502D01*
X292671Y248475D01*
X292623Y248457D01*
X292567Y248412D01*
X292505Y248375D01*
X292471Y248336D01*
X292431Y248303D01*
X292392Y248243D01*
X292345Y248188D01*
X292326Y248140D01*
X292298Y248096D01*
X292280Y248027D01*
X292253Y247960D01*
X292245Y247889D01*
X292237Y247858D01*
X292239Y247834D01*
X292235Y247794D01*
X292235Y242715D01*
X292249Y242624D01*
X292257Y242534D01*
X292269Y242504D01*
X292274Y242472D01*
X292317Y242391D01*
X292353Y242307D01*
X292379Y242275D01*
X292390Y242254D01*
X292413Y242232D01*
X292458Y242176D01*
X300524Y234110D01*
X300598Y234057D01*
X300668Y233997D01*
X300698Y233985D01*
X300724Y233966D01*
X300811Y233939D01*
X300896Y233905D01*
X300937Y233901D01*
X300959Y233894D01*
X300991Y233895D01*
X301063Y233887D01*
X316564Y233887D01*
X316584Y233890D01*
X316603Y233888D01*
X316705Y233910D01*
X316807Y233926D01*
X316824Y233936D01*
X316844Y233940D01*
X316933Y233993D01*
X317024Y234042D01*
X317038Y234056D01*
X317055Y234066D01*
X317122Y234145D01*
X317194Y234220D01*
X317202Y234238D01*
X317215Y234253D01*
X317254Y234349D01*
X317297Y234443D01*
X317299Y234463D01*
X317307Y234481D01*
X317325Y234648D01*
X317325Y236071D01*
X319829Y238575D01*
X323371Y238575D01*
X325875Y236071D01*
X325875Y232529D01*
X324628Y231283D01*
X324616Y231266D01*
X324601Y231254D01*
X324545Y231167D01*
X324484Y231083D01*
X324479Y231064D01*
X324468Y231047D01*
X324442Y230947D01*
X324412Y230848D01*
X324413Y230828D01*
X324408Y230808D01*
X324416Y230706D01*
X324418Y230602D01*
X324425Y230583D01*
X324427Y230563D01*
X324467Y230468D01*
X324503Y230371D01*
X324515Y230355D01*
X324523Y230337D01*
X324628Y230206D01*
X339024Y215810D01*
X340587Y214247D01*
X340587Y195563D01*
X340601Y195472D01*
X340609Y195382D01*
X340621Y195352D01*
X340626Y195320D01*
X340669Y195239D01*
X340705Y195155D01*
X340731Y195123D01*
X340742Y195102D01*
X340765Y195080D01*
X340810Y195024D01*
X342724Y193110D01*
X342798Y193057D01*
X342868Y192997D01*
X342898Y192985D01*
X342924Y192966D01*
X343011Y192939D01*
X343096Y192905D01*
X343137Y192901D01*
X343159Y192894D01*
X343191Y192895D01*
X343263Y192887D01*
X350726Y192887D01*
X350816Y192901D01*
G37*
%LPC*%
G36*
X144073Y289226D02*
X144073Y289226D01*
X137136Y292100D01*
X131826Y297410D01*
X128952Y304347D01*
X128952Y311857D01*
X131826Y318794D01*
X137136Y324104D01*
X144073Y326978D01*
X151583Y326978D01*
X158520Y324104D01*
X163830Y318794D01*
X166704Y311857D01*
X166704Y304347D01*
X163830Y297410D01*
X158520Y292100D01*
X151583Y289226D01*
X144073Y289226D01*
G37*
%LPD*%
%LPC*%
G36*
X463097Y289226D02*
X463097Y289226D01*
X456160Y292100D01*
X450850Y297410D01*
X447976Y304347D01*
X447976Y311857D01*
X450850Y318794D01*
X456160Y324104D01*
X463097Y326978D01*
X470607Y326978D01*
X477544Y324104D01*
X482854Y318794D01*
X485728Y311857D01*
X485728Y304347D01*
X482854Y297410D01*
X477544Y292100D01*
X470607Y289226D01*
X463097Y289226D01*
G37*
%LPD*%
%LPC*%
G36*
X463097Y107362D02*
X463097Y107362D01*
X456160Y110236D01*
X450850Y115546D01*
X447976Y122483D01*
X447976Y129993D01*
X450850Y136930D01*
X456160Y142240D01*
X463097Y145114D01*
X470607Y145114D01*
X477544Y142240D01*
X482854Y136930D01*
X485728Y129993D01*
X485728Y122483D01*
X482854Y115546D01*
X477544Y110236D01*
X470607Y107362D01*
X463097Y107362D01*
G37*
%LPD*%
%LPC*%
G36*
X144073Y107362D02*
X144073Y107362D01*
X137136Y110236D01*
X131826Y115546D01*
X128952Y122483D01*
X128952Y129993D01*
X131826Y136930D01*
X137136Y142240D01*
X144073Y145114D01*
X151583Y145114D01*
X158520Y142240D01*
X163830Y136930D01*
X166704Y129993D01*
X166704Y122483D01*
X163830Y115546D01*
X158520Y110236D01*
X151583Y107362D01*
X144073Y107362D01*
G37*
%LPD*%
%LPC*%
G36*
X330729Y290825D02*
X330729Y290825D01*
X328964Y292590D01*
X328890Y292643D01*
X328821Y292703D01*
X328791Y292715D01*
X328765Y292734D01*
X328678Y292761D01*
X328593Y292795D01*
X328552Y292799D01*
X328529Y292806D01*
X328497Y292805D01*
X328426Y292813D01*
X290853Y292813D01*
X283113Y300553D01*
X283113Y337126D01*
X283099Y337216D01*
X283091Y337307D01*
X283079Y337337D01*
X283074Y337369D01*
X283031Y337449D01*
X282995Y337533D01*
X282969Y337565D01*
X282958Y337586D01*
X282935Y337608D01*
X282890Y337664D01*
X281125Y339429D01*
X281125Y342971D01*
X283629Y345475D01*
X287171Y345475D01*
X289675Y342971D01*
X289675Y339429D01*
X287910Y337664D01*
X287857Y337590D01*
X287797Y337521D01*
X287785Y337491D01*
X287766Y337465D01*
X287739Y337378D01*
X287705Y337293D01*
X287701Y337252D01*
X287694Y337229D01*
X287695Y337197D01*
X287687Y337126D01*
X287687Y302763D01*
X287701Y302672D01*
X287709Y302582D01*
X287721Y302552D01*
X287726Y302520D01*
X287769Y302439D01*
X287805Y302355D01*
X287831Y302323D01*
X287842Y302302D01*
X287865Y302280D01*
X287910Y302224D01*
X292524Y297610D01*
X292598Y297557D01*
X292668Y297497D01*
X292698Y297485D01*
X292724Y297466D01*
X292811Y297439D01*
X292896Y297405D01*
X292937Y297401D01*
X292959Y297394D01*
X292991Y297395D01*
X293063Y297387D01*
X328426Y297387D01*
X328516Y297401D01*
X328607Y297409D01*
X328637Y297421D01*
X328669Y297426D01*
X328749Y297469D01*
X328833Y297505D01*
X328865Y297531D01*
X328886Y297542D01*
X328908Y297565D01*
X328964Y297610D01*
X330729Y299375D01*
X334271Y299375D01*
X336775Y296871D01*
X336775Y293329D01*
X334271Y290825D01*
X330729Y290825D01*
G37*
%LPD*%
%LPC*%
G36*
X167729Y349425D02*
X167729Y349425D01*
X165225Y351929D01*
X165225Y355471D01*
X167729Y357975D01*
X170225Y357975D01*
X170316Y357989D01*
X170406Y357997D01*
X170436Y358009D01*
X170468Y358014D01*
X170549Y358057D01*
X170633Y358093D01*
X170665Y358119D01*
X170686Y358130D01*
X170708Y358153D01*
X170764Y358198D01*
X172033Y359467D01*
X206955Y359467D01*
X207070Y359486D01*
X207186Y359503D01*
X207192Y359505D01*
X207198Y359506D01*
X207300Y359561D01*
X207405Y359614D01*
X207410Y359619D01*
X207415Y359622D01*
X207495Y359706D01*
X207577Y359790D01*
X207581Y359796D01*
X207585Y359800D01*
X207592Y359817D01*
X207658Y359937D01*
X208165Y361159D01*
X210141Y363135D01*
X211168Y363561D01*
X211174Y363564D01*
X211184Y363567D01*
X212723Y364205D01*
X215517Y364205D01*
X218099Y363135D01*
X220075Y361159D01*
X221145Y358577D01*
X221145Y355783D01*
X220075Y353201D01*
X218099Y351225D01*
X215517Y350155D01*
X212723Y350155D01*
X210141Y351225D01*
X208165Y353201D01*
X207658Y354423D01*
X207596Y354523D01*
X207537Y354623D01*
X207532Y354627D01*
X207529Y354632D01*
X207438Y354707D01*
X207350Y354783D01*
X207344Y354785D01*
X207339Y354789D01*
X207231Y354831D01*
X207122Y354875D01*
X207114Y354876D01*
X207110Y354877D01*
X207091Y354878D01*
X206955Y354893D01*
X174536Y354893D01*
X174516Y354890D01*
X174497Y354892D01*
X174395Y354870D01*
X174293Y354854D01*
X174276Y354844D01*
X174256Y354840D01*
X174167Y354787D01*
X174076Y354738D01*
X174062Y354724D01*
X174045Y354714D01*
X173978Y354635D01*
X173906Y354560D01*
X173898Y354542D01*
X173885Y354527D01*
X173846Y354431D01*
X173803Y354337D01*
X173801Y354317D01*
X173793Y354299D01*
X173775Y354132D01*
X173775Y351929D01*
X171271Y349425D01*
X167729Y349425D01*
G37*
%LPD*%
%LPC*%
G36*
X32752Y206810D02*
X32752Y206810D01*
X28911Y208401D01*
X25971Y211341D01*
X24380Y215181D01*
X24380Y219339D01*
X25971Y223179D01*
X28911Y226119D01*
X32752Y227710D01*
X36909Y227710D01*
X40750Y226119D01*
X43689Y223179D01*
X45280Y219339D01*
X45280Y215181D01*
X43689Y211341D01*
X40750Y208401D01*
X36909Y206810D01*
X32752Y206810D01*
G37*
%LPD*%
%LPC*%
G36*
X217133Y11375D02*
X217133Y11375D01*
X215618Y12890D01*
X215544Y12943D01*
X215474Y13003D01*
X215444Y13015D01*
X215418Y13034D01*
X215331Y13061D01*
X215246Y13095D01*
X215205Y13099D01*
X215183Y13106D01*
X215151Y13105D01*
X215080Y13113D01*
X214753Y13113D01*
X208260Y19606D01*
X208186Y19659D01*
X208116Y19719D01*
X208086Y19731D01*
X208060Y19750D01*
X207973Y19777D01*
X207888Y19811D01*
X207847Y19815D01*
X207825Y19822D01*
X207793Y19821D01*
X207721Y19829D01*
X191825Y19829D01*
X191735Y19815D01*
X191719Y19813D01*
X171520Y19813D01*
X171430Y19799D01*
X171339Y19791D01*
X171310Y19779D01*
X171278Y19774D01*
X171197Y19731D01*
X171113Y19695D01*
X171081Y19669D01*
X171060Y19658D01*
X171038Y19635D01*
X170982Y19590D01*
X169467Y18075D01*
X166133Y18075D01*
X163775Y20433D01*
X163775Y23767D01*
X166133Y26125D01*
X169467Y26125D01*
X170982Y24610D01*
X171056Y24557D01*
X171126Y24497D01*
X171156Y24485D01*
X171182Y24466D01*
X171269Y24439D01*
X171354Y24405D01*
X171395Y24401D01*
X171417Y24394D01*
X171449Y24395D01*
X171520Y24387D01*
X189284Y24387D01*
X189374Y24401D01*
X189390Y24403D01*
X209931Y24403D01*
X215483Y18851D01*
X215499Y18840D01*
X215511Y18824D01*
X215598Y18768D01*
X215682Y18708D01*
X215702Y18702D01*
X215718Y18691D01*
X215819Y18666D01*
X215918Y18635D01*
X215938Y18636D01*
X215957Y18631D01*
X216060Y18639D01*
X216163Y18642D01*
X216182Y18648D01*
X216202Y18650D01*
X216297Y18690D01*
X216394Y18726D01*
X216410Y18739D01*
X216428Y18746D01*
X216559Y18851D01*
X217133Y19425D01*
X220467Y19425D01*
X222825Y17067D01*
X222825Y13733D01*
X220467Y11375D01*
X217133Y11375D01*
G37*
%LPD*%
%LPC*%
G36*
X233329Y306225D02*
X233329Y306225D01*
X230825Y308729D01*
X230825Y312271D01*
X232590Y314036D01*
X232643Y314110D01*
X232703Y314179D01*
X232715Y314209D01*
X232734Y314235D01*
X232761Y314322D01*
X232795Y314407D01*
X232799Y314448D01*
X232806Y314471D01*
X232805Y314503D01*
X232813Y314574D01*
X232813Y327237D01*
X232799Y327328D01*
X232791Y327418D01*
X232779Y327448D01*
X232774Y327480D01*
X232731Y327561D01*
X232695Y327645D01*
X232669Y327677D01*
X232658Y327698D01*
X232635Y327720D01*
X232590Y327776D01*
X230869Y329497D01*
X230775Y329565D01*
X230681Y329635D01*
X230675Y329637D01*
X230670Y329640D01*
X230559Y329674D01*
X230447Y329711D01*
X230441Y329711D01*
X230435Y329713D01*
X230318Y329710D01*
X230201Y329708D01*
X230194Y329706D01*
X230189Y329706D01*
X230171Y329700D01*
X230040Y329662D01*
X228817Y329155D01*
X226023Y329155D01*
X223441Y330225D01*
X221465Y332201D01*
X220395Y334783D01*
X220395Y337577D01*
X221465Y340159D01*
X223441Y342135D01*
X226023Y343205D01*
X228817Y343205D01*
X231399Y342135D01*
X233375Y340159D01*
X234445Y337577D01*
X234445Y334783D01*
X233938Y333560D01*
X233912Y333446D01*
X233883Y333333D01*
X233884Y333327D01*
X233882Y333321D01*
X233893Y333204D01*
X233902Y333088D01*
X233905Y333082D01*
X233905Y333076D01*
X233953Y332968D01*
X233999Y332862D01*
X234003Y332856D01*
X234005Y332851D01*
X234018Y332837D01*
X234103Y332731D01*
X237387Y329447D01*
X237387Y314574D01*
X237401Y314484D01*
X237409Y314393D01*
X237421Y314363D01*
X237426Y314331D01*
X237469Y314251D01*
X237505Y314167D01*
X237531Y314135D01*
X237542Y314114D01*
X237565Y314092D01*
X237610Y314036D01*
X239375Y312271D01*
X239375Y308729D01*
X236871Y306225D01*
X233329Y306225D01*
G37*
%LPD*%
%LPC*%
G36*
X460212Y243855D02*
X460212Y243855D01*
X454855Y249212D01*
X454855Y256788D01*
X460212Y262145D01*
X467788Y262145D01*
X473145Y256788D01*
X473145Y249212D01*
X467788Y243855D01*
X460212Y243855D01*
G37*
%LPD*%
%LPC*%
G36*
X434812Y243855D02*
X434812Y243855D01*
X429455Y249212D01*
X429455Y256788D01*
X434812Y262145D01*
X442388Y262145D01*
X447745Y256788D01*
X447745Y249212D01*
X442388Y243855D01*
X434812Y243855D01*
G37*
%LPD*%
%LPC*%
G36*
X207029Y365025D02*
X207029Y365025D01*
X204525Y367529D01*
X204525Y371071D01*
X207029Y373575D01*
X207972Y373575D01*
X207992Y373578D01*
X208011Y373576D01*
X208113Y373598D01*
X208215Y373614D01*
X208232Y373624D01*
X208252Y373628D01*
X208341Y373681D01*
X208432Y373730D01*
X208446Y373744D01*
X208463Y373754D01*
X208530Y373833D01*
X208602Y373908D01*
X208610Y373926D01*
X208623Y373941D01*
X208662Y374037D01*
X208705Y374131D01*
X208707Y374151D01*
X208715Y374169D01*
X208733Y374336D01*
X208733Y384567D01*
X208719Y384657D01*
X208711Y384748D01*
X208699Y384778D01*
X208694Y384810D01*
X208651Y384890D01*
X208615Y384974D01*
X208589Y385006D01*
X208578Y385027D01*
X208555Y385049D01*
X208510Y385105D01*
X207565Y386051D01*
X206495Y388633D01*
X206495Y391427D01*
X207565Y394009D01*
X209541Y395985D01*
X212123Y397055D01*
X214917Y397055D01*
X217499Y395985D01*
X219475Y394009D01*
X220545Y391427D01*
X220545Y388633D01*
X219475Y386051D01*
X217499Y384075D01*
X214917Y383005D01*
X214068Y383005D01*
X214048Y383002D01*
X214029Y383004D01*
X213927Y382982D01*
X213825Y382966D01*
X213808Y382956D01*
X213788Y382952D01*
X213699Y382899D01*
X213608Y382850D01*
X213594Y382836D01*
X213577Y382826D01*
X213510Y382747D01*
X213438Y382672D01*
X213430Y382654D01*
X213417Y382639D01*
X213378Y382543D01*
X213335Y382449D01*
X213333Y382429D01*
X213325Y382411D01*
X213307Y382244D01*
X213307Y370573D01*
X213298Y370564D01*
X213245Y370490D01*
X213185Y370420D01*
X213173Y370390D01*
X213154Y370364D01*
X213127Y370277D01*
X213093Y370192D01*
X213089Y370151D01*
X213082Y370129D01*
X213083Y370097D01*
X213075Y370025D01*
X213075Y367529D01*
X210571Y365025D01*
X207029Y365025D01*
G37*
%LPD*%
%LPC*%
G36*
X276523Y385355D02*
X276523Y385355D01*
X273941Y386425D01*
X271965Y388401D01*
X270895Y390983D01*
X270895Y393852D01*
X270892Y393872D01*
X270894Y393891D01*
X270872Y393993D01*
X270856Y394095D01*
X270846Y394112D01*
X270842Y394132D01*
X270789Y394221D01*
X270740Y394312D01*
X270726Y394326D01*
X270716Y394343D01*
X270637Y394410D01*
X270562Y394482D01*
X270544Y394490D01*
X270529Y394503D01*
X270433Y394542D01*
X270339Y394585D01*
X270319Y394587D01*
X270301Y394595D01*
X270134Y394613D01*
X264374Y394613D01*
X264284Y394599D01*
X264193Y394591D01*
X264163Y394579D01*
X264131Y394574D01*
X264051Y394531D01*
X263967Y394495D01*
X263934Y394469D01*
X263914Y394458D01*
X263892Y394435D01*
X263836Y394390D01*
X262071Y392625D01*
X258529Y392625D01*
X256025Y395129D01*
X256025Y398671D01*
X258529Y401175D01*
X262071Y401175D01*
X263836Y399410D01*
X263910Y399357D01*
X263979Y399297D01*
X264009Y399285D01*
X264035Y399266D01*
X264122Y399239D01*
X264207Y399205D01*
X264248Y399201D01*
X264270Y399194D01*
X264303Y399195D01*
X264374Y399187D01*
X274347Y399187D01*
X274471Y399063D01*
X274556Y399002D01*
X274603Y398962D01*
X274619Y398955D01*
X274659Y398925D01*
X274665Y398923D01*
X274670Y398920D01*
X274782Y398886D01*
X274893Y398849D01*
X274899Y398849D01*
X274905Y398847D01*
X275022Y398850D01*
X275139Y398852D01*
X275146Y398854D01*
X275151Y398854D01*
X275169Y398860D01*
X275272Y398890D01*
X275278Y398891D01*
X275282Y398893D01*
X275300Y398898D01*
X276523Y399405D01*
X279317Y399405D01*
X281899Y398335D01*
X283875Y396359D01*
X284945Y393777D01*
X284945Y390983D01*
X283875Y388401D01*
X281899Y386425D01*
X279317Y385355D01*
X276523Y385355D01*
G37*
%LPD*%
%LPC*%
G36*
X220829Y306025D02*
X220829Y306025D01*
X218325Y308529D01*
X218325Y312071D01*
X220090Y313836D01*
X220135Y313899D01*
X220160Y313925D01*
X220165Y313935D01*
X220203Y313979D01*
X220215Y314009D01*
X220234Y314035D01*
X220261Y314122D01*
X220295Y314207D01*
X220299Y314248D01*
X220306Y314271D01*
X220305Y314303D01*
X220313Y314374D01*
X220313Y314482D01*
X220310Y314502D01*
X220312Y314521D01*
X220290Y314623D01*
X220274Y314725D01*
X220264Y314742D01*
X220260Y314762D01*
X220207Y314851D01*
X220158Y314942D01*
X220144Y314956D01*
X220134Y314973D01*
X220055Y315040D01*
X219980Y315112D01*
X219962Y315120D01*
X219947Y315133D01*
X219851Y315172D01*
X219757Y315215D01*
X219737Y315217D01*
X219719Y315225D01*
X219552Y315243D01*
X218185Y315243D01*
X218070Y315224D01*
X217954Y315207D01*
X217948Y315205D01*
X217942Y315204D01*
X217840Y315149D01*
X217735Y315096D01*
X217730Y315091D01*
X217725Y315088D01*
X217645Y315004D01*
X217563Y314920D01*
X217559Y314914D01*
X217555Y314910D01*
X217548Y314893D01*
X217482Y314773D01*
X216975Y313551D01*
X214999Y311575D01*
X212417Y310505D01*
X209623Y310505D01*
X207041Y311575D01*
X205065Y313551D01*
X203995Y316133D01*
X203995Y318927D01*
X205065Y321509D01*
X207041Y323485D01*
X209623Y324555D01*
X212417Y324555D01*
X214999Y323485D01*
X216975Y321509D01*
X217482Y320287D01*
X217544Y320187D01*
X217603Y320087D01*
X217608Y320083D01*
X217611Y320078D01*
X217702Y320003D01*
X217790Y319927D01*
X217796Y319925D01*
X217801Y319921D01*
X217909Y319879D01*
X218018Y319835D01*
X218026Y319834D01*
X218030Y319833D01*
X218049Y319832D01*
X218185Y319817D01*
X223547Y319817D01*
X224887Y318477D01*
X224887Y314374D01*
X224901Y314284D01*
X224909Y314193D01*
X224921Y314163D01*
X224926Y314131D01*
X224969Y314051D01*
X225005Y313967D01*
X225031Y313935D01*
X225042Y313914D01*
X225065Y313892D01*
X225083Y313869D01*
X225087Y313862D01*
X225092Y313858D01*
X225110Y313836D01*
X226875Y312071D01*
X226875Y308529D01*
X224371Y306025D01*
X220829Y306025D01*
G37*
%LPD*%
%LPC*%
G36*
X329929Y98025D02*
X329929Y98025D01*
X327425Y100529D01*
X327425Y103025D01*
X327411Y103115D01*
X327403Y103206D01*
X327391Y103236D01*
X327386Y103268D01*
X327343Y103349D01*
X327307Y103433D01*
X327281Y103465D01*
X327270Y103486D01*
X327247Y103508D01*
X327202Y103564D01*
X326595Y104171D01*
X326558Y104198D01*
X326527Y104231D01*
X326459Y104269D01*
X326395Y104314D01*
X326352Y104328D01*
X326311Y104350D01*
X326235Y104364D01*
X326160Y104387D01*
X326115Y104386D01*
X326069Y104394D01*
X325992Y104382D01*
X325915Y104380D01*
X325871Y104365D01*
X325826Y104358D01*
X325757Y104323D01*
X325684Y104296D01*
X325648Y104267D01*
X325607Y104246D01*
X325552Y104191D01*
X325491Y104142D01*
X325467Y104104D01*
X325434Y104071D01*
X325369Y103951D01*
X325358Y103935D01*
X325357Y103931D01*
X325354Y103924D01*
X324855Y102721D01*
X322879Y100745D01*
X320297Y99675D01*
X317503Y99675D01*
X314921Y100745D01*
X312945Y102721D01*
X311875Y105303D01*
X311875Y108097D01*
X312945Y110679D01*
X314921Y112655D01*
X317503Y113725D01*
X320297Y113725D01*
X322879Y112655D01*
X324855Y110679D01*
X325362Y109457D01*
X325424Y109357D01*
X325483Y109257D01*
X325488Y109253D01*
X325491Y109248D01*
X325582Y109173D01*
X325670Y109097D01*
X325676Y109095D01*
X325681Y109091D01*
X325789Y109049D01*
X325898Y109005D01*
X325906Y109004D01*
X325910Y109003D01*
X325929Y109002D01*
X326065Y108987D01*
X328247Y108987D01*
X330436Y106798D01*
X330510Y106745D01*
X330580Y106685D01*
X330610Y106673D01*
X330636Y106654D01*
X330723Y106627D01*
X330808Y106593D01*
X330849Y106589D01*
X330871Y106582D01*
X330903Y106583D01*
X330975Y106575D01*
X333471Y106575D01*
X335975Y104071D01*
X335975Y100529D01*
X333471Y98025D01*
X329929Y98025D01*
G37*
%LPD*%
%LPC*%
G36*
X179758Y26079D02*
X179758Y26079D01*
X177019Y27214D01*
X174924Y29309D01*
X173789Y32048D01*
X173789Y35012D01*
X174924Y37751D01*
X177019Y39846D01*
X179758Y40981D01*
X182722Y40981D01*
X185461Y39846D01*
X187556Y37751D01*
X188691Y35012D01*
X188691Y32048D01*
X187556Y29309D01*
X185461Y27214D01*
X182722Y26079D01*
X179758Y26079D01*
G37*
%LPD*%
%LPC*%
G36*
X210103Y29531D02*
X210103Y29531D01*
X207745Y31889D01*
X207745Y35223D01*
X210103Y37581D01*
X213437Y37581D01*
X214952Y36066D01*
X215026Y36013D01*
X215096Y35953D01*
X215126Y35941D01*
X215152Y35922D01*
X215239Y35895D01*
X215324Y35861D01*
X215365Y35857D01*
X215387Y35850D01*
X215419Y35851D01*
X215490Y35843D01*
X222146Y35843D01*
X222236Y35857D01*
X222327Y35865D01*
X222356Y35877D01*
X222388Y35882D01*
X222469Y35925D01*
X222553Y35961D01*
X222585Y35987D01*
X222606Y35998D01*
X222628Y36021D01*
X222684Y36066D01*
X224199Y37581D01*
X227533Y37581D01*
X229891Y35223D01*
X229891Y31889D01*
X227533Y29531D01*
X224199Y29531D01*
X222684Y31046D01*
X222610Y31099D01*
X222540Y31159D01*
X222510Y31171D01*
X222484Y31190D01*
X222397Y31217D01*
X222312Y31251D01*
X222271Y31255D01*
X222249Y31262D01*
X222217Y31261D01*
X222146Y31269D01*
X215490Y31269D01*
X215400Y31255D01*
X215309Y31247D01*
X215280Y31235D01*
X215248Y31230D01*
X215167Y31187D01*
X215083Y31151D01*
X215051Y31125D01*
X215030Y31114D01*
X215008Y31091D01*
X214952Y31046D01*
X213437Y29531D01*
X210103Y29531D01*
G37*
%LPD*%
%LPC*%
G36*
X255126Y27929D02*
X255126Y27929D01*
X253067Y28782D01*
X251492Y30357D01*
X250639Y32416D01*
X250639Y34644D01*
X251492Y36703D01*
X253067Y38278D01*
X255126Y39131D01*
X257354Y39131D01*
X259413Y38278D01*
X260988Y36703D01*
X261841Y34644D01*
X261841Y32416D01*
X260988Y30357D01*
X259413Y28782D01*
X257354Y27929D01*
X255126Y27929D01*
G37*
%LPD*%
%LPC*%
G36*
X351450Y408159D02*
X351450Y408159D01*
X351449Y408160D01*
X351449Y412160D01*
X351450Y412161D01*
X356450Y412161D01*
X356451Y412160D01*
X356451Y408160D01*
X356450Y408159D01*
X351450Y408159D01*
G37*
%LPD*%
D10*
X34830Y217260D03*
X579630Y217260D03*
D11*
X214120Y357180D03*
X213520Y390030D03*
X277920Y392380D03*
X211020Y317530D03*
X227420Y336180D03*
D12*
X242740Y55030D03*
X194740Y55030D03*
X194740Y12030D03*
X242740Y12030D03*
D13*
X438600Y253000D03*
X464000Y253000D03*
X438600Y227600D03*
X464000Y227600D03*
X438600Y202200D03*
X464000Y202200D03*
D11*
X269800Y322400D03*
X259000Y340300D03*
X247600Y357100D03*
X348000Y107400D03*
X281000Y210800D03*
X318900Y106700D03*
D14*
X467620Y12520D03*
X281500Y235600D03*
X341500Y221300D03*
X355600Y201200D03*
X306800Y237900D03*
D15*
X447800Y91300D03*
D14*
X314200Y200100D03*
X370300Y344200D03*
X430000Y320000D03*
X410000Y320000D03*
X390000Y320000D03*
X370000Y320000D03*
X350000Y320000D03*
X410000Y300000D03*
X430000Y300000D03*
X410000Y280000D03*
X430000Y280000D03*
X450000Y280000D03*
X410000Y262000D03*
X470000Y280000D03*
X490000Y280000D03*
X510000Y280000D03*
X530000Y280000D03*
X530000Y260000D03*
X510000Y260000D03*
X490000Y260000D03*
X490000Y240000D03*
X510000Y240000D03*
X530000Y240000D03*
X120000Y130000D03*
X140000Y100000D03*
X260000Y50000D03*
X280000Y60000D03*
X284000Y100000D03*
X280000Y20000D03*
X370000Y60000D03*
X410000Y242000D03*
X410000Y222000D03*
X510000Y300000D03*
X325300Y328800D03*
X325000Y341500D03*
X324600Y353800D03*
X324600Y366400D03*
X324400Y379200D03*
X324700Y392100D03*
X310000Y410000D03*
X300000Y420000D03*
X190000Y420000D03*
X180000Y410000D03*
X590000Y200000D03*
X550000Y240000D03*
X470020Y50020D03*
X30000Y150000D03*
X90000Y150000D03*
X150000Y150000D03*
X150000Y210000D03*
X26000Y274200D03*
X96100Y270000D03*
X140000Y260000D03*
X256500Y264600D03*
X480000Y150000D03*
X510000Y220000D03*
X530000Y220000D03*
X550000Y220000D03*
X550000Y200000D03*
X530000Y200000D03*
X510000Y200000D03*
X570000Y200000D03*
X550000Y260000D03*
X590000Y260000D03*
X590000Y240000D03*
X570000Y230000D03*
X480000Y170000D03*
X460000Y150000D03*
X450000Y50000D03*
X450000Y68100D03*
X470020Y70020D03*
X280000Y40000D03*
X260000Y20000D03*
X260000Y70000D03*
X280000Y80000D03*
X300000Y150000D03*
X260000Y190000D03*
X130000Y150000D03*
X110000Y150000D03*
X70000Y150000D03*
X50000Y150000D03*
X40000Y170000D03*
X20000Y170000D03*
X60000Y170000D03*
X80000Y170000D03*
X100000Y170000D03*
X120000Y170000D03*
X140000Y170000D03*
X160000Y170000D03*
X170000Y150000D03*
X174600Y129400D03*
X170000Y110000D03*
X170000Y90000D03*
X170000Y190000D03*
X150000Y190000D03*
X130000Y190000D03*
X170000Y210000D03*
X190000Y210000D03*
X150000Y240000D03*
X170000Y240000D03*
X190000Y240000D03*
X160000Y260000D03*
X180000Y260000D03*
X200000Y260000D03*
X30000Y190000D03*
X10000Y190000D03*
X50000Y190000D03*
X70000Y190000D03*
X20000Y230000D03*
X60000Y230000D03*
X10000Y250000D03*
X80000Y250000D03*
X30000Y260000D03*
X50000Y260000D03*
X70000Y260000D03*
X90000Y290000D03*
X110000Y290000D03*
X150000Y280000D03*
X170000Y280000D03*
X190000Y280000D03*
X180000Y300000D03*
X160000Y340000D03*
X160000Y360000D03*
X170000Y420000D03*
X467400Y389400D03*
X467400Y383300D03*
X467400Y377200D03*
X467400Y371100D03*
X467500Y365000D03*
X467500Y358900D03*
X467500Y352800D03*
X467400Y346700D03*
X461800Y344100D03*
X455700Y344100D03*
X449600Y344100D03*
X443500Y344200D03*
X437400Y344200D03*
X431300Y344200D03*
X425200Y344200D03*
X419100Y344200D03*
X413000Y344200D03*
X406900Y344200D03*
X400800Y344200D03*
X394700Y344200D03*
X388600Y344200D03*
X382500Y344200D03*
X376400Y344200D03*
X364200Y344200D03*
X358100Y344200D03*
X352000Y344200D03*
X350400Y350100D03*
X350400Y356200D03*
X350500Y362300D03*
X350500Y368400D03*
X350500Y374500D03*
X350500Y380600D03*
X350500Y386800D03*
X311300Y284000D03*
X332500Y295100D03*
D16*
X291800Y295100D01*
X285400Y301500D01*
X285400Y341200D01*
D14*
X285400Y341200D03*
X235100Y310500D03*
D16*
X235100Y328500D01*
X227420Y336180D01*
D14*
X222600Y310300D03*
D16*
X222600Y317530D01*
X211020Y317530D01*
D14*
X169500Y353700D03*
D16*
X172980Y357180D01*
X214120Y357180D01*
D14*
X208800Y369300D03*
D16*
X211020Y387530D02*
X213520Y390030D01*
X211020Y387530D02*
X211020Y371520D01*
X208800Y369300D01*
D14*
X260300Y396900D03*
D16*
X273400Y396900D01*
X277920Y392380D01*
D14*
X412000Y41400D03*
D16*
X410100Y43300D01*
X410100Y46189D01*
X361537Y129152D02*
X332637Y129152D01*
X325552Y136237D01*
X325552Y178500D02*
X316988Y187064D01*
X367152Y89137D02*
X410100Y46189D01*
X367152Y89137D02*
X367152Y123537D01*
X361537Y129152D01*
X325552Y136237D02*
X325552Y178500D01*
X316988Y187064D02*
X286736Y187064D01*
X249300Y224500D01*
D14*
X249300Y245700D03*
D16*
X249300Y224500D01*
D14*
X403176Y45391D03*
D16*
X401000Y47567D01*
X401000Y50979D01*
X359975Y126104D02*
X331375Y126104D01*
X322504Y134975D01*
X315525Y184016D02*
X285473Y184016D01*
X245052Y224437D01*
X245052Y239900D01*
X364104Y87875D02*
X401000Y50979D01*
X364104Y87875D02*
X364104Y121975D01*
X359975Y126104D01*
X322504Y134975D02*
X322504Y177037D01*
X315525Y184016D01*
X236352Y248600D02*
X207100Y248600D01*
D14*
X207100Y248600D03*
D16*
X236352Y248600D02*
X245052Y239900D01*
D14*
X385900Y119600D03*
D16*
X385900Y126600D01*
X388400Y129100D01*
X388400Y136500D01*
X381700Y143200D01*
X381700Y179100D01*
X367400Y193400D02*
X367400Y243500D01*
X351600Y259300D01*
X347200Y259300D01*
D14*
X347200Y259300D03*
D16*
X367400Y193400D02*
X381700Y179100D01*
D14*
X354800Y190600D03*
D16*
X342000Y190600D01*
X338300Y213300D02*
X321600Y230000D01*
X321600Y233500D01*
D14*
X321600Y234300D03*
D16*
X321600Y233500D01*
X338300Y194300D02*
X342000Y190600D01*
X338300Y194300D02*
X338300Y213300D01*
X259000Y281411D02*
X259000Y340300D01*
X259000Y281411D02*
X289948Y250463D01*
X289948Y241452D02*
X299800Y231600D01*
X289948Y241452D02*
X289948Y250463D01*
X299800Y231600D02*
X319400Y231600D01*
X319850Y231750D02*
X321600Y233500D01*
X319850Y231750D02*
X319650Y231550D01*
X319500Y231700D02*
X319400Y231600D01*
X319500Y231700D02*
X319650Y231550D01*
X319850Y231750D02*
X321600Y230000D01*
D14*
X361100Y143500D03*
D16*
X361100Y167189D01*
X335252Y193037D01*
X321889Y225400D02*
X318000Y225400D01*
D14*
X318000Y225400D03*
D16*
X335252Y212037D02*
X335252Y193037D01*
X335252Y212037D02*
X321889Y225400D01*
X318000Y225400D02*
X317800Y225600D01*
X286900Y225600D01*
D14*
X286900Y225600D03*
D16*
X286900Y249200D01*
X247600Y288500D01*
X247600Y357100D01*
X318900Y106700D02*
X327300Y106700D01*
X331700Y102300D01*
D14*
X331700Y102300D03*
D16*
X348000Y107400D02*
X348000Y118200D01*
D14*
X348000Y118200D03*
X393914Y141486D03*
D16*
X393914Y169514D01*
X394000Y169600D01*
D14*
X394000Y169600D03*
X419500Y42800D03*
D16*
X417800Y42800D01*
X370200Y90400D01*
X370200Y125200D01*
X363200Y132200D01*
X333900Y132200D01*
X328600Y137500D01*
X328600Y192000D01*
D14*
X328600Y192000D03*
D16*
X296400Y192000D01*
X296300Y192100D01*
D14*
X296300Y192100D03*
D16*
X293400Y192100D01*
X281000Y204500D01*
X281000Y210800D01*
D14*
X419500Y58800D03*
D16*
X410421Y58800D01*
X376296Y92925D01*
X376296Y177304D02*
X361600Y192000D01*
X361600Y233200D01*
X376296Y177304D02*
X376296Y92925D01*
X361600Y233200D02*
X352800Y242000D01*
X335200Y242000D01*
D14*
X335200Y242000D03*
D16*
X330100Y247100D01*
X307900Y247100D01*
D14*
X307900Y247100D03*
D16*
X269800Y275300D02*
X269800Y322400D01*
X269800Y275300D02*
X298700Y246400D01*
X307200Y246400D01*
X307900Y247100D01*
X406732Y66800D02*
X419500Y66800D01*
X406732Y66800D02*
X379344Y94188D01*
X379344Y132412D01*
X381332Y134400D01*
D14*
X381332Y134400D03*
X419500Y66800D03*
X419500Y50700D03*
D16*
X414211Y50700D01*
X373248Y91663D01*
X346252Y136348D02*
X344100Y138500D01*
X363763Y136348D02*
X373248Y126863D01*
X363763Y136348D02*
X346252Y136348D01*
X344100Y138500D02*
X344100Y139700D01*
D14*
X344100Y139700D03*
D16*
X373248Y126863D02*
X373248Y91663D01*
D14*
X400100Y92500D03*
D16*
X413700Y92500D01*
X432700Y111500D01*
X432700Y183200D01*
X427500Y188400D01*
X427500Y221700D01*
X433500Y227700D01*
X438500Y227700D01*
X438600Y227600D01*
D14*
X395500Y86500D03*
D16*
X402300Y86500D02*
X405252Y89452D01*
X402300Y86500D02*
X395500Y86500D01*
X405252Y89452D02*
X414963Y89452D01*
X435748Y110237D01*
X435748Y184463D02*
X430755Y189455D01*
X430755Y194355D01*
X438600Y202200D01*
X435748Y184463D02*
X435748Y110237D01*
D14*
X194000Y162800D03*
D17*
X218600Y162800D01*
X223100Y158300D01*
X240800Y158300D01*
X240900Y158400D01*
X242400Y156900D01*
X242400Y156000D01*
D14*
X242400Y156000D03*
X297500Y47400D03*
D16*
X297500Y53678D01*
X288116Y63062D01*
X288116Y80727D01*
X290968Y83579D01*
X290968Y103611D02*
X292956Y105599D01*
X290968Y103611D02*
X290968Y83579D01*
X292956Y105599D02*
X292956Y127112D01*
X241034Y179034D01*
X207034Y179034D01*
X205200Y177200D01*
D14*
X205200Y177200D03*
X297100Y61200D03*
D16*
X297100Y67478D01*
X291164Y73414D01*
X291164Y79464D01*
X294016Y82316D01*
X294016Y102349D02*
X296004Y104337D01*
X294016Y102349D02*
X294016Y82316D01*
X296004Y104337D02*
X296004Y128375D01*
X242139Y182239D01*
X201839Y182239D01*
X187900Y168300D01*
D14*
X187900Y168300D03*
X297100Y75700D03*
D16*
X297064Y101086D02*
X299052Y103074D01*
X299052Y129637D01*
X243145Y185545D01*
X198023Y185545D01*
X191339Y178861D01*
D14*
X191339Y178861D03*
D16*
X297064Y75736D02*
X297100Y75700D01*
X297064Y75736D02*
X297064Y101086D01*
D14*
X302100Y99000D03*
D16*
X302100Y130900D01*
X244400Y188600D01*
D14*
X182800Y153800D03*
D16*
X182864Y153864D01*
X182864Y177508D01*
X193956Y188600D02*
X244400Y188600D01*
X193956Y188600D02*
X182864Y177508D01*
D15*
X167800Y22100D03*
X218800Y15400D03*
D16*
X190546Y22100D02*
X167800Y22100D01*
X190546Y22100D02*
X190562Y22116D01*
X208984Y22116D01*
X215700Y15400D02*
X218800Y15400D01*
X215700Y15400D02*
X208984Y22116D01*
D14*
X410000Y119400D03*
D16*
X425600Y119400D01*
X425700Y119500D01*
D14*
X425700Y119500D03*
D15*
X211770Y33556D03*
D16*
X225866Y33556D01*
D15*
X225866Y33556D03*
D14*
X385900Y7800D03*
D16*
X418100Y7800D01*
X438796Y28496D01*
X451200Y197000D02*
X451200Y216300D01*
X462500Y227600D01*
X464000Y227600D01*
X438796Y184596D02*
X438796Y28496D01*
X438796Y184596D02*
X451200Y197000D01*
X464000Y227600D02*
X475600Y227600D01*
X476600Y226600D01*
D14*
X476600Y226600D03*
M02*
