G04 EAGLE Gerber RS-274X export*
G75*
%MOMM*%
%FSLAX34Y34*%
%LPD*%
%INSoldermask Top*%
%IPPOS*%
%AMOC8*
5,1,8,0,0,1.08239X$1,22.5*%
G01*
%ADD10C,3.276600*%
%ADD11C,1.886600*%
%ADD12R,2.401600X1.101600*%
%ADD13R,1.101600X2.401600*%
%ADD14R,0.701600X1.576600*%
%ADD15R,1.576600X0.701600*%
%ADD16R,0.326600X0.951600*%
%ADD17C,0.451600*%
%ADD18R,1.801600X1.551600*%
%ADD19R,1.801600X3.301600*%
%ADD20R,1.201600X1.101600*%
%ADD21R,1.101600X1.201600*%
%ADD22R,1.101600X1.501600*%
%ADD23R,1.401600X1.601600*%
%ADD24R,1.601600X1.401600*%
%ADD25R,1.251600X0.701600*%
%ADD26R,1.501600X0.851600*%
%ADD27R,0.951600X0.351600*%
%ADD28R,1.501600X2.601600*%
%ADD29R,1.701600X1.401600*%
%ADD30R,0.401600X0.971600*%
%ADD31C,0.621600*%
%ADD32C,1.661600*%
%ADD33C,0.991600*%
%ADD34R,1.701600X0.801600*%
%ADD35C,1.101600*%
%ADD36R,0.701600X1.301600*%
%ADD37P,1.759533X8X292.500000*%


D10*
X147828Y308102D03*
X147828Y126238D03*
X466852Y308102D03*
X466852Y126238D03*
D11*
X34830Y217260D03*
X579630Y217260D03*
D12*
X187620Y391210D03*
X187620Y378710D03*
X187620Y366210D03*
X187620Y353710D03*
X187620Y341210D03*
X187620Y328710D03*
X187620Y316210D03*
D13*
X210120Y293710D03*
X222620Y293710D03*
X235120Y293710D03*
X247620Y293710D03*
X260120Y293710D03*
X272620Y293710D03*
X285120Y293710D03*
D12*
X307620Y316210D03*
X307620Y328710D03*
X307620Y341210D03*
X307620Y353710D03*
X307620Y366210D03*
X307620Y378710D03*
X307620Y391210D03*
D13*
X285120Y413710D03*
X272620Y413710D03*
X260120Y413710D03*
X247620Y413710D03*
X235120Y413710D03*
X222620Y413710D03*
X210120Y413710D03*
D14*
X361914Y20402D03*
X369914Y20402D03*
X377914Y20402D03*
X385914Y20402D03*
X393914Y20402D03*
X401914Y20402D03*
X409914Y20402D03*
X417914Y20402D03*
D15*
X432294Y34782D03*
X432294Y42782D03*
X432294Y50782D03*
X432294Y58782D03*
X432294Y66782D03*
X432294Y74782D03*
X432294Y82782D03*
X432294Y90782D03*
D14*
X417914Y105162D03*
X409914Y105162D03*
X401914Y105162D03*
X393914Y105162D03*
X385914Y105162D03*
X377914Y105162D03*
X369914Y105162D03*
X361914Y105162D03*
D15*
X347534Y90782D03*
X347534Y82782D03*
X347534Y74782D03*
X347534Y66782D03*
X347534Y58782D03*
X347534Y50782D03*
X347534Y42782D03*
X347534Y34782D03*
D16*
X308230Y225590D03*
X304230Y225590D03*
X300230Y225590D03*
X296230Y225590D03*
X292230Y225590D03*
X292230Y206090D03*
X296230Y206090D03*
X300230Y206090D03*
X304230Y206090D03*
X308230Y206090D03*
D17*
X348080Y228530D02*
X348080Y233530D01*
X341580Y233530D02*
X341580Y228530D01*
X335080Y228530D02*
X335080Y233530D01*
X328580Y233530D02*
X328580Y228530D01*
X326080Y219530D02*
X321080Y219530D01*
X321080Y213030D02*
X326080Y213030D01*
X328580Y204030D02*
X328580Y199030D01*
X335080Y199030D02*
X335080Y204030D01*
X341580Y204030D02*
X341580Y199030D01*
X348080Y199030D02*
X348080Y204030D01*
X350580Y213030D02*
X355580Y213030D01*
X355580Y219530D02*
X350580Y219530D01*
D18*
X364950Y401410D03*
X364950Y418910D03*
D19*
X455950Y410160D03*
D20*
X337970Y351090D03*
X337970Y368090D03*
X338100Y333840D03*
X355100Y333840D03*
D21*
X337500Y401850D03*
X337500Y418850D03*
X146250Y392410D03*
X146250Y409410D03*
X159820Y392290D03*
X159820Y409290D03*
D22*
X368500Y291950D03*
X378000Y267950D03*
X359000Y267950D03*
D20*
X236430Y265420D03*
X236430Y248420D03*
X219840Y265600D03*
X219840Y248600D03*
D23*
X344180Y177780D03*
X361180Y177780D03*
X378180Y177780D03*
X344100Y156290D03*
X361100Y156290D03*
X378100Y156290D03*
D24*
X381930Y198660D03*
X381930Y215660D03*
X381930Y232660D03*
D20*
X288970Y180300D03*
X288970Y163300D03*
X302970Y180240D03*
X302970Y163240D03*
D21*
X281330Y247160D03*
X298330Y247160D03*
X220000Y225560D03*
X220000Y208560D03*
X234900Y225420D03*
X234900Y208420D03*
D25*
X120830Y207230D03*
X120830Y226230D03*
X98830Y216730D03*
D21*
X100570Y191560D03*
X117570Y191560D03*
D20*
X117580Y254870D03*
X100580Y254870D03*
X117620Y241120D03*
X100620Y241120D03*
X311540Y13550D03*
X294540Y13550D03*
X311620Y27240D03*
X294620Y27240D03*
D26*
X326750Y12870D03*
X326750Y27370D03*
D22*
X459200Y11560D03*
X449700Y33560D03*
X468700Y33560D03*
D27*
X234170Y149280D03*
X234170Y153780D03*
X234170Y158280D03*
X234170Y162780D03*
X234170Y167280D03*
X234170Y171780D03*
X205170Y171780D03*
X205170Y167280D03*
X205170Y162780D03*
X205170Y158280D03*
X205170Y153780D03*
X205170Y149280D03*
D28*
X219670Y160530D03*
D20*
X210630Y115930D03*
X210630Y132930D03*
X226720Y115960D03*
X226720Y132960D03*
D21*
X192690Y116040D03*
X192690Y133040D03*
X244850Y116290D03*
X244850Y133290D03*
X306500Y47420D03*
X323500Y47420D03*
X306200Y61190D03*
X323200Y61190D03*
X306130Y75490D03*
X323130Y75490D03*
X306110Y89500D03*
X323110Y89500D03*
X251950Y154240D03*
X251950Y171240D03*
D20*
X256140Y97740D03*
X273140Y97740D03*
D29*
X266770Y114680D03*
X266770Y134680D03*
D21*
X284690Y134010D03*
X284690Y117010D03*
X300920Y133900D03*
X300920Y116900D03*
D30*
X246240Y24880D03*
X231240Y24880D03*
X226240Y24880D03*
X221240Y24880D03*
X216240Y24880D03*
X211240Y24880D03*
X206240Y24880D03*
X191240Y24880D03*
X191240Y42180D03*
X206240Y42180D03*
X211240Y42180D03*
X216240Y42180D03*
X221240Y42180D03*
X226240Y42180D03*
X231240Y42180D03*
X246240Y42180D03*
D31*
X256240Y33530D03*
D32*
X242740Y55030D03*
X194740Y55030D03*
D33*
X181240Y33530D03*
D32*
X194740Y12030D03*
X242740Y12030D03*
D20*
X157370Y57420D03*
X157370Y74420D03*
X157600Y45180D03*
X157600Y28180D03*
D34*
X590940Y150870D03*
X590940Y161370D03*
X590940Y171870D03*
X556940Y171870D03*
X556940Y161370D03*
X556940Y150870D03*
D21*
X528130Y148850D03*
X511130Y148850D03*
X528210Y163870D03*
X511210Y163870D03*
X528210Y178930D03*
X511210Y178930D03*
D35*
X148870Y422350D03*
X148390Y11020D03*
X14740Y147940D03*
X597240Y282060D03*
D36*
X209380Y71920D03*
X218880Y71920D03*
X228380Y71920D03*
X228380Y96920D03*
X218880Y96920D03*
X209380Y96920D03*
D20*
X418410Y130100D03*
X435410Y130100D03*
X418300Y143040D03*
X435300Y143040D03*
D21*
X486000Y217100D03*
X486000Y200100D03*
D37*
X438600Y253000D03*
X464000Y253000D03*
X438600Y227600D03*
X464000Y227600D03*
X438600Y202200D03*
X464000Y202200D03*
D21*
X392900Y179400D03*
X409900Y179400D03*
X392900Y158300D03*
X409900Y158300D03*
X344400Y294400D03*
X344400Y277400D03*
D20*
X392600Y294100D03*
X392600Y277100D03*
M02*
