M48
;GenerationSoftware,Autodesk,EAGLE,9.6.2*%
;CreationDate,2025-04-06T01:21:04Z*%
FMAT,2
ICI,OFF
METRIC,TZ,000.000
T8C0.300
T7C0.350
T6C0.520
T5C0.890
T4C1.016
T3C1.040
T2C1.190
T1C3.175
%
G90
M71
T1
X14783Y30810
X14783Y12624
X46685Y30810
X46685Y12624
T2
X3483Y21726
X57963Y21726
T3
X24274Y5503
X19474Y5503
X19474Y1203
X24274Y1203
T4
X46400Y20220
X43860Y25300
X46400Y25300
X43860Y22760
X46400Y22760
X43860Y20220
T5
X18124Y3353
T6
X25624Y3353
T7
X41000Y26200
X47000Y28000
X49000Y28000
X51000Y28000
X53000Y28000
X53000Y26000
X51000Y26000
X49000Y26000
X49000Y24000
X51000Y24000
X53000Y24000
X12000Y13000
X14000Y10000
X26000Y5000
X28000Y6000
X28400Y10000
X28000Y2000
X37000Y6000
X41000Y24200
X41000Y22200
X51000Y30000
X32530Y32880
X32500Y34150
X32460Y35380
X32460Y36640
X32440Y37920
X32470Y39210
X31000Y41000
X30000Y42000
X19000Y42000
X18000Y41000
X59000Y20000
X55000Y24000
X47002Y5002
X3000Y15000
X9000Y15000
X15000Y15000
X15000Y21000
X2600Y27420
X9610Y27000
X14000Y26000
X25650Y26460
X48000Y15000
X51000Y22000
X53000Y22000
X55000Y22000
X55000Y20000
X53000Y20000
X51000Y20000
X57000Y20000
X55000Y26000
X59000Y26000
X59000Y24000
X57000Y23000
X48000Y17000
X46000Y15000
X45000Y5000
X45000Y6810
X47002Y7002
X28000Y4000
X26000Y2000
X26000Y7000
X28000Y8000
X30000Y15000
X26000Y19000
X13000Y15000
X11000Y15000
X7000Y15000
X5000Y15000
X4000Y17000
X2000Y17000
X6000Y17000
X8000Y17000
X10000Y17000
X12000Y17000
X14000Y17000
X16000Y17000
X17000Y15000
X17460Y12940
X17000Y11000
X17000Y9000
X17000Y19000
X15000Y19000
X13000Y19000
X17000Y21000
X19000Y21000
X15000Y24000
X17000Y24000
X19000Y24000
X16000Y26000
X18000Y26000
X20000Y26000
X3000Y19000
X1000Y19000
X5000Y19000
X7000Y19000
X2000Y23000
X6000Y23000
X1000Y25000
X8000Y25000
X3000Y26000
X5000Y26000
X7000Y26000
X9000Y29000
X11000Y29000
X15000Y28000
X17000Y28000
X19000Y28000
X18000Y30000
X16000Y34000
X16000Y36000
X17000Y42000
X46740Y38940
X46740Y38330
X46740Y37720
X46740Y37110
X46750Y36500
X46750Y35890
X46750Y35280
X46740Y34670
X46180Y34410
X45570Y34410
X44960Y34410
X44350Y34420
X43740Y34420
X43130Y34420
X42520Y34420
X41910Y34420
X41300Y34420
X40690Y34420
X40080Y34420
X39470Y34420
X38860Y34420
X38250Y34420
X37640Y34420
X36420Y34420
X35810Y34420
X35200Y34420
X35040Y35010
X35040Y35620
X35050Y36230
X35050Y36840
X35050Y37450
X35050Y38060
X35050Y38680
X31130Y28400
X33250Y29510
X28540Y34120
X23510Y31050
X22260Y31030
X16950Y35370
X20880Y36930
X26030Y39690
X41200Y4140
X24930Y24570
X40318Y4539
X20710Y24860
X34720Y25930
X35480Y19060
X32160Y23430
X36110Y14350
X31800Y22540
X28690Y22560
X33170Y10230
X34800Y11820
X39391Y14149
X39400Y16960
X41950Y4280
X32860Y19200
X29630Y19210
X41950Y5880
X33520Y24200
X30790Y24710
X38133Y13440
X41950Y6680
X41950Y5070
X34410Y13970
X40010Y9250
X39550Y8650
X19400Y16280
X24240Y15600
X29750Y4740
X20520Y17720
X29710Y6120
X18790Y16830
X38590Y11960
X19134Y17886
X30210Y9900
X18280Y15380
X41000Y11940
X42570Y11950
X38590Y780
X47660Y22660
X46762Y1252
X28150Y23560
X34150Y22130
X35560Y20120
X30680Y23790
X31420Y20010
X37030Y34420
X43000Y32000
X41000Y32000
X39000Y32000
X37000Y32000
X35000Y32000
X41000Y30000
X43000Y30000
X41000Y28000
X43000Y28000
X45000Y28000
X29710Y7570
T8
X21880Y1540
X44780Y9130
X16780Y2210
X21177Y3356
X22587Y3356
M30